<svg xmlns="http://www.w3.org/2000/svg" width="414.43206787109375" height="66.93948364257812" viewBox="-124.40637969970703 64.37994384765625 414.43206787109375 66.93948364257812"><title>Neo4j Graph Visualization</title><desc>Created using Neo4j (http://www.neo4j.com/)</desc><g class="layer relationships"><g class="relationship" transform="translate(261.02569474517975 93.74524175819516) rotate(537.3172365245371)"><path class="outline" fill="#A5ABB6" stroke="none" d="M 21.40063509461097,12.933012701892217 L 21.90063509461097,12.06698729810778 A 72.08519848624218 72.08519848624218 0 0 0 46.37894084242074,20.79092339463206 L 46.21851548828208,21.777971370036227 A 73.08519848624218 73.08519848624218 0 0 1 21.40063509461097,12.933012701892217 Z M 65.62256318828422,22.320005334672487 L 65.51748953438974,21.325540892242657 A 72.08519848624218 72.08519848624218 0 0 0 90.44463363982055,13.981699932187647 L 89.09200924599476,11.303938320462771 L 96.91818146614956,11.271869948548272 L 92.24813283158828,17.552048747820812 L 90.89550843776249,14.874287136095939 A 73.08519848624218 73.08519848624218 0 0 1 65.62256318828422,22.320005334672487"/><text text-anchor="middle" pointer-events="none" font-size="8px" fill="#000000" x="55.916425172192405" y="25.196269667325325" transform="rotate(180 55.916425172192405 22.196269667325325)" font-family="sans-serif">trek</text></g><g class="relationship" transform="translate(141.9235122797544 99.3260489290595) rotate(538.8775313760445)"><path class="outline" fill="#A5ABB6" stroke="none" d="M 25 0.5 L 42.55047170757682 0.5 L 42.55047170757682 -0.5 L 25 -0.5 Z M 61.88640920757682 0.5 L 79.43688091515364 0.5 L 79.43688091515364 3.5 L 86.43688091515364 0 L 79.43688091515364 -3.5 L 79.43688091515364 -0.5 L 61.88640920757682 -0.5 Z"/><text text-anchor="middle" pointer-events="none" font-size="8px" fill="#000000" x="52.21844045757682" y="3" transform="rotate(180 52.21844045757682 0)" font-family="sans-serif">trek</text></g><g class="relationship" transform="translate(30.508015328739532 101.50904394887374) rotate(539.6312473846369)"><path class="outline" fill="#A5ABB6" stroke="none" d="M 25 0.5 L 49.790533054475986 0.5 L 49.790533054475986 -0.5 L 25 -0.5 Z M 69.12647055447599 0.5 L 93.91700360895197 0.5 L 93.91700360895197 3.5 L 100.91700360895197 0 L 93.91700360895197 -3.5 L 93.91700360895197 -0.5 L 69.12647055447599 -0.5 Z"/><text text-anchor="middle" pointer-events="none" font-size="8px" fill="#000000" x="59.458501804475986" y="3" transform="rotate(180 59.458501804475986 0)" font-family="sans-serif">trek</text></g><g class="relationship" transform="translate(261.02569474517975 93.74524175819516) rotate(537.3172365245371)"><path class="outline" fill="#A5ABB6" stroke="none" d="M 25 0.5 L 45.11057140692841 0.5 L 45.11057140692841 -0.5 L 25 -0.5 Z M 67.12229015692841 0.5 L 87.23286156385682 0.5 L 87.23286156385682 3.5 L 94.23286156385682 0 L 87.23286156385682 -3.5 L 87.23286156385682 -0.5 L 67.12229015692841 -0.5 Z"/><text text-anchor="middle" pointer-events="none" font-size="8px" fill="#000000" x="56.11643078192841" y="3" transform="rotate(180 56.11643078192841 0)" font-family="sans-serif">road</text></g><g class="relationship" transform="translate(261.02569474517975 93.74524175819516) rotate(537.3172365245371)"><path class="outline" fill="#A5ABB6" stroke="none" d="M 21.40063509461097,-12.933012701892217 L 21.90063509461097,-12.06698729810778 A 72.08519848624218 72.08519848624218 0 0 1 26.385804642589928,-14.449901649102287 L 25.948025037929963,-15.348983968883829 A 73.08519848624218 73.08519848624218 0 0 0 21.40063509461097,-12.933012701892217 Z M 86.2203391633665,-17.032634817835742 L 85.83343312204329,-16.110515674130568 A 72.08519848624218 72.08519848624218 0 0 1 90.44463363982055,-13.981699932187647 L 89.09200924599476,-11.303938320462771 L 96.91818146614956,-11.271869948548272 L 92.24813283158828,-17.552048747820812 L 90.89550843776249,-14.874287136095939 A 73.08519848624218 73.08519848624218 0 0 0 86.2203391633665,-17.032634817835742"/><text text-anchor="middle" pointer-events="none" font-size="8px" fill="#000000" x="55.91642517219239" y="-19.196269667325325" transform="rotate(180 55.91642517219239 -22.196269667325325)" font-family="sans-serif">PublicTransport</text></g></g><g class="layer nodes"><g class="node" transform="translate(261.02569474517975,93.74524175819516)"><circle class="outline" cx="0" cy="0" r="25" fill="#F16667" stroke="#eb2728" stroke-width="2px"/><text text-anchor="middle" pointer-events="none" font-family="sans-serif" dy="1.5625" font-size="25" fill="#FFFFFF"/><text text-anchor="middle" pointer-events="none" x="0" y="5" font-size="10px" fill="#FFFFFF" font-family="sans-serif"> Darjeeling</text></g><g class="node" transform="translate(-95.40638045884597,102.31943354906156)"><circle class="outline" cx="0" cy="0" r="25" fill="#D9C8AE" stroke="#c0a378" stroke-width="2px"/><text text-anchor="middle" pointer-events="none" font-family="sans-serif" dy="1.5625" font-size="25" fill="#2A2C34"/><text text-anchor="middle" pointer-events="none" x="0" y="5" font-size="10px" fill="#2A2C34" font-family="sans-serif"> Sandak…</text></g><g class="node" transform="translate(141.9235122797544,99.3260489290595)"><circle class="outline" cx="0" cy="0" r="25" fill="#F16667" stroke="#eb2728" stroke-width="2px"/><text text-anchor="middle" pointer-events="none" font-family="sans-serif" dy="1.5625" font-size="25" fill="#FFFFFF"/><text text-anchor="middle" pointer-events="none" x="0" y="5" font-size="10px" fill="#FFFFFF" font-family="sans-serif"> Rimbik</text></g><g class="node" transform="translate(30.508015328739532,101.50904394887374)"><circle class="outline" cx="0" cy="0" r="25" fill="#8DCC93" stroke="#5db665" stroke-width="2px"/><text text-anchor="middle" pointer-events="none" font-family="sans-serif" dy="1.5625" font-size="25" fill="#2A2C34"/><text text-anchor="middle" pointer-events="none" x="0" y="5" font-size="10px" fill="#2A2C34" font-family="sans-serif"> BhikeBh…</text></g></g></svg>