<svg xmlns="http://www.w3.org/2000/svg" width="823.3158569335938" height="129.09246826171875" viewBox="-380.4594421386719 49.09258270263672 823.3158569335938 129.09246826171875"><title>Neo4j Graph Visualization</title><desc>Created using Neo4j (http://www.neo4j.com/)</desc><g class="layer relationships"><g class="relationship" transform="translate(-260.1329663739993 148.0031825098669) rotate(217.43414399206756)"><path class="outline" fill="#A5ABB6" stroke="none" d="M 25 0.5 L 36.783887881848166 0.5 L 36.783887881848166 -0.5 L 25 -0.5 Z M 71.22920038184816 0.5 L 83.01308826369633 0.5 L 83.01308826369633 3.5 L 90.01308826369633 0 L 83.01308826369633 -3.5 L 83.01308826369633 -0.5 L 71.22920038184816 -0.5 Z"/><text text-anchor="middle" pointer-events="none" font-size="8px" fill="#000000" x="54.006544131848166" y="3" transform="rotate(180 54.006544131848166 0)" font-family="sans-serif">ORIGIN</text></g><g class="relationship" transform="translate(-260.1329663739993 148.0031825098669) rotate(330.6745280736001)"><path class="outline" fill="#A5ABB6" stroke="none" d="M 25 0.5 L 28.544249459276955 0.5 L 28.544249459276955 -0.5 L 25 -0.5 Z M 87.73174945927695 0.5 L 91.27599891855391 0.5 L 91.27599891855391 3.5 L 98.27599891855391 0 L 91.27599891855391 -3.5 L 91.27599891855391 -0.5 L 87.73174945927695 -0.5 Z"/><text text-anchor="middle" pointer-events="none" font-size="8px" fill="#000000" x="58.137999459276955" y="3" font-family="sans-serif">DESTINATION</text></g><g class="relationship" transform="translate(-48.099656310200274 149.18502385705165) rotate(210.48827307064818)"><path class="outline" fill="#A5ABB6" stroke="none" d="M 25 0.5 L 39.94284441903158 0.5 L 39.94284441903158 -0.5 L 25 -0.5 Z M 74.38815691903159 0.5 L 89.33100133806316 0.5 L 89.33100133806316 3.5 L 96.33100133806316 0 L 89.33100133806316 -3.5 L 89.33100133806316 -0.5 L 74.38815691903159 -0.5 Z"/><text text-anchor="middle" pointer-events="none" font-size="8px" fill="#000000" x="57.16550066903158" y="3" transform="rotate(180 57.16550066903158 0)" font-family="sans-serif">ORIGIN</text></g><g class="relationship" transform="translate(-48.099656310200274 149.18502385705165) rotate(328.30821857915134)"><path class="outline" fill="#A5ABB6" stroke="none" d="M 25 0.5 L 26.659811589397812 0.5 L 26.659811589397812 -0.5 L 25 -0.5 Z M 85.8473115893978 0.5 L 87.50712317879562 0.5 L 87.50712317879562 3.5 L 94.50712317879562 0 L 87.50712317879562 -3.5 L 87.50712317879562 -0.5 L 85.8473115893978 -0.5 Z"/><text text-anchor="middle" pointer-events="none" font-size="8px" fill="#000000" x="56.25356158939781" y="3" font-family="sans-serif">DESTINATION</text></g><g class="relationship" transform="translate(146.77063937492431 147.73447935415638) rotate(213.3525807353186)"><path class="outline" fill="#A5ABB6" stroke="none" d="M 25 0.5 L 25.795710269676363 0.5 L 25.795710269676363 -0.5 L 25 -0.5 Z M 78.76055401967636 0.5 L 79.55626428935273 0.5 L 79.55626428935273 3.5 L 86.55626428935273 0 L 79.55626428935273 -3.5 L 79.55626428935273 -0.5 L 78.76055401967636 -0.5 Z"/><text text-anchor="middle" pointer-events="none" font-size="8px" fill="#000000" x="52.27813214467636" y="3" transform="rotate(180 52.27813214467636 0)" font-family="sans-serif">DESTINAT…</text></g><g class="relationship" transform="translate(146.77063937492431 147.73447935415638) rotate(324.97028166207315)"><path class="outline" fill="#A5ABB6" stroke="none" d="M 25 0.5 L 27.70602825849781 0.5 L 27.70602825849781 -0.5 L 25 -0.5 Z M 62.15134075849781 0.5 L 64.85736901699562 0.5 L 64.85736901699562 3.5 L 71.85736901699562 0 L 64.85736901699562 -3.5 L 64.85736901699562 -0.5 L 62.15134075849781 -0.5 Z"/><text text-anchor="middle" pointer-events="none" font-size="8px" fill="#000000" x="44.92868450849781" y="3" font-family="sans-serif">ORIGIN</text></g><g class="relationship" transform="translate(311.543818223891 144.4125463333611) rotate(211.45303568369985)"><path class="outline" fill="#A5ABB6" stroke="none" d="M 25 0.5 L 29.367768595897623 0.5 L 29.367768595897623 -0.5 L 25 -0.5 Z M 63.81308109589762 0.5 L 68.18084969179525 0.5 L 68.18084969179525 3.5 L 75.18084969179525 0 L 68.18084969179525 -3.5 L 68.18084969179525 -0.5 L 63.81308109589762 -0.5 Z"/><text text-anchor="middle" pointer-events="none" font-size="8px" fill="#000000" x="46.59042484589762" y="3" transform="rotate(180 46.59042484589762 0)" font-family="sans-serif">ORIGIN</text></g><g class="relationship" transform="translate(311.543818223891 144.4125463333611) rotate(331.4551312181027)"><path class="outline" fill="#A5ABB6" stroke="none" d="M 25 0.5 L 25.141439220165317 0.5 L 25.141439220165317 -0.5 L 25 -0.5 Z M 84.32893922016532 0.5 L 84.47037844033063 0.5 L 84.47037844033063 3.5 L 91.47037844033063 0 L 84.47037844033063 -3.5 L 84.47037844033063 -0.5 L 84.32893922016532 -0.5 Z"/><text text-anchor="middle" pointer-events="none" font-size="8px" fill="#000000" x="54.73518922016532" y="3" font-family="sans-serif">DESTINATION</text></g></g><g class="layer nodes"><g class="node" transform="translate(413.856427417361,88.75754607230536)"><circle class="outline" cx="0" cy="0" r="25" fill="#ECB5C9" stroke="#da7298" stroke-width="2px"/><text text-anchor="middle" pointer-events="none" font-family="sans-serif" dy="1.5625" font-size="25" fill="#2A2C34"/><text text-anchor="middle" pointer-events="none" x="0" y="5" font-size="10px" fill="#2A2C34" font-family="sans-serif"> DAY</text></g><g class="node" transform="translate(-351.4593999780283,78.09257532382043)"><circle class="outline" cx="0" cy="0" r="25" fill="#ECB5C9" stroke="#da7298" stroke-width="2px"/><text text-anchor="middle" pointer-events="none" font-family="sans-serif" dy="1.5625" font-size="25" fill="#2A2C34"/><text text-anchor="middle" pointer-events="none" x="0" y="5" font-size="10px" fill="#2A2C34" font-family="sans-serif"> LAX</text></g><g class="node" transform="translate(-260.1329663739993,148.0031825098669)"><circle class="outline" cx="0" cy="0" r="25" fill="#4C8EDA" stroke="#2870c2" stroke-width="2px"/><text text-anchor="middle" pointer-events="none" font-family="sans-serif" dy="1.5625" font-size="25" fill="#FFFFFF"/><text text-anchor="middle" pointer-events="none" x="0" y="5" font-size="10px" fill="#FFFFFF" font-family="sans-serif"> 11/29/20…</text></g><g class="node" transform="translate(-152.65458676293085,87.62628439853319)"><circle class="outline" cx="0" cy="0" r="25" fill="#ECB5C9" stroke="#da7298" stroke-width="2px"/><text text-anchor="middle" pointer-events="none" font-family="sans-serif" dy="1.5625" font-size="25" fill="#2A2C34"/><text text-anchor="middle" pointer-events="none" x="0" y="5" font-size="10px" fill="#2A2C34" font-family="sans-serif"> LAS</text></g><g class="node" transform="translate(-48.099656310200274,149.18502385705165)"><circle class="outline" cx="0" cy="0" r="25" fill="#4C8EDA" stroke="#2870c2" stroke-width="2px"/><text text-anchor="middle" pointer-events="none" font-family="sans-serif" dy="1.5625" font-size="25" fill="#FFFFFF"/><text text-anchor="middle" pointer-events="none" x="0" y="5" font-size="10px" fill="#FFFFFF" font-family="sans-serif"> 11/29/20…</text></g><g class="node" transform="translate(53.58733846757645,86.40200399071963)"><circle class="outline" cx="0" cy="0" r="25" fill="#ECB5C9" stroke="#da7298" stroke-width="2px"/><text text-anchor="middle" pointer-events="none" font-family="sans-serif" dy="1.5625" font-size="25" fill="#2A2C34"/><text text-anchor="middle" pointer-events="none" x="0" y="5" font-size="10px" fill="#2A2C34" font-family="sans-serif"> DEN</text></g><g class="node" transform="translate(146.77063937492431,147.73447935415638)"><circle class="outline" cx="0" cy="0" r="25" fill="#4C8EDA" stroke="#2870c2" stroke-width="2px"/><text text-anchor="middle" pointer-events="none" font-family="sans-serif" dy="1.5625" font-size="25" fill="#FFFFFF"/><text text-anchor="middle" pointer-events="none" x="0" y="5" font-size="10px" fill="#FFFFFF" font-family="sans-serif"> 11/29/20…</text></g><g class="node" transform="translate(226.08272505863658,92.13822950406356)"><circle class="outline" cx="0" cy="0" r="25" fill="#ECB5C9" stroke="#da7298" stroke-width="2px"/><text text-anchor="middle" pointer-events="none" font-family="sans-serif" dy="1.5625" font-size="25" fill="#2A2C34"/><text text-anchor="middle" pointer-events="none" x="0" y="5" font-size="10px" fill="#2A2C34" font-family="sans-serif"> MSP</text></g><g class="node" transform="translate(311.543818223891,144.4125463333611)"><circle class="outline" cx="0" cy="0" r="25" fill="#4C8EDA" stroke="#2870c2" stroke-width="2px"/><text text-anchor="middle" pointer-events="none" font-family="sans-serif" dy="1.5625" font-size="25" fill="#FFFFFF"/><text text-anchor="middle" pointer-events="none" x="0" y="5" font-size="10px" fill="#FFFFFF" font-family="sans-serif"> 11/23/20…</text></g></g></svg>