<svg xmlns="http://www.w3.org/2000/svg" width="327.5255432128906" height="134.41171264648438" viewBox="-25.574045181274414 10.214481353759766 327.5255432128906 134.41171264648438"><title>Neo4j Graph Visualization</title><desc>Created using Neo4j (http://www.neo4j.com/)</desc><g class="layer relationships"><g class="relationship" transform="translate(272.9515065127579 103.83635151085019) rotate(534.1149016042561)"><path class="outline" fill="#A5ABB6" stroke="none" d="M 21.40063509461097,12.933012701892217 L 21.90063509461097,12.06698729810778 A 67.7136852283466 67.7136852283466 0 0 0 44.259012472721615,20.155482185948443 L 44.08920240851839,21.140958995465184 A 68.7136852283466 68.7136852283466 0 0 1 21.40063509461097,12.933012701892217 Z M 63.493616424685214,21.702025059516515 L 63.38103130150061,20.70838297604908 A 67.7136852283466 67.7136852283466 0 0 0 86.16941137717733,13.925277340786336 L 84.82203527886706,11.244871093647257 L 92.64825530355355,11.228134152585557 L 87.96591284159102,17.499152336971775 L 86.61853674328076,14.818746089832695 A 68.7136852283466 68.7136852283466 0 0 1 63.493616424685214,21.702025059516515"/><text text-anchor="middle" pointer-events="none" font-size="8px" fill="#000000" x="53.785947145650034" y="24.61040412502757" transform="rotate(180 53.785947145650034 21.61040412502757)" font-family="sans-serif">trek</text></g><g class="relationship" transform="translate(158.57255872247896 115.62620117071947) rotate(224.908940196782)"><path class="outline" fill="#A5ABB6" stroke="none" d="M 25 0.5 L 40.94935289650154 0.5 L 40.94935289650154 -0.5 L 25 -0.5 Z M 60.28529039650154 0.5 L 76.23464329300307 0.5 L 76.23464329300307 3.5 L 83.23464329300307 0 L 76.23464329300307 -3.5 L 76.23464329300307 -0.5 L 60.28529039650154 -0.5 Z"/><text text-anchor="middle" pointer-events="none" font-size="8px" fill="#000000" x="50.61732164650154" y="3" transform="rotate(180 50.61732164650154 0)" font-family="sans-serif">trek</text></g><g class="relationship" transform="translate(81.91757109203041 39.21448164982794) rotate(497.94498092441364)"><path class="outline" fill="#A5ABB6" stroke="none" d="M 25 0.5 L 39.68820006535439 0.5 L 39.68820006535439 -0.5 L 25 -0.5 Z M 59.02413756535439 0.5 L 73.71233763070877 0.5 L 73.71233763070877 3.5 L 80.71233763070877 0 L 73.71233763070877 -3.5 L 73.71233763070877 -0.5 L 59.02413756535439 -0.5 Z"/><text text-anchor="middle" pointer-events="none" font-size="8px" fill="#000000" x="49.35616881535439" y="3" transform="rotate(180 49.35616881535439 0)" font-family="sans-serif">trek</text></g><g class="relationship" transform="translate(272.9515065127579 103.83635151085019) rotate(534.1149016042561)"><path class="outline" fill="#A5ABB6" stroke="none" d="M 25 0.5 L 42.98662763985627 0.5 L 42.98662763985627 -0.5 L 25 -0.5 Z M 64.99834638985627 0.5 L 82.98497402971255 0.5 L 82.98497402971255 3.5 L 89.98497402971255 0 L 82.98497402971255 -3.5 L 82.98497402971255 -0.5 L 64.99834638985627 -0.5 Z"/><text text-anchor="middle" pointer-events="none" font-size="8px" fill="#000000" x="53.99248701485627" y="3" transform="rotate(180 53.99248701485627 0)" font-family="sans-serif">road</text></g><g class="relationship" transform="translate(272.9515065127579 103.83635151085019) rotate(534.1149016042561)"><path class="outline" fill="#A5ABB6" stroke="none" d="M 21.40063509461097,-12.933012701892217 L 21.90063509461097,-12.06698729810778 A 67.7136852283466 67.7136852283466 0 0 1 24.407275722620334,-13.444445980054091 L 23.94429395046536,-14.330813781055596 A 68.7136852283466 68.7136852283466 0 0 0 21.40063509461097,-12.933012701892217 Z M 83.99836203182193,-16.06723826574268 L 83.58736843965482,-15.155600033110034 A 67.7136852283466 67.7136852283466 0 0 1 86.16941137717733,-13.925277340786336 L 84.82203527886706,-11.244871093647257 L 92.64825530355355,-11.228134152585557 L 87.96591284159102,-17.499152336971775 L 86.61853674328076,-14.818746089832695 A 68.7136852283466 68.7136852283466 0 0 0 83.99836203182193,-16.06723826574268"/><text text-anchor="middle" pointer-events="none" font-size="8px" fill="#000000" x="53.78594714565001" y="-18.61040412502757" transform="rotate(180 53.78594714565001 -21.61040412502757)" font-family="sans-serif">PublicTransport</text></g></g><g class="layer nodes"><g class="node" transform="translate(272.9515065127579,103.83635151085019)"><circle class="outline" cx="0" cy="0" r="25" fill="#F16667" stroke="#eb2728" stroke-width="2px"/><text text-anchor="middle" pointer-events="none" font-family="sans-serif" dy="1.5625" font-size="25" fill="#FFFFFF"/><text text-anchor="middle" pointer-events="none" x="0" y="5" font-size="10px" fill="#FFFFFF" font-family="sans-serif"> Darjeeling</text></g><g class="node" transform="translate(3.425955224108076,110.0252475388613)"><circle class="outline" cx="0" cy="0" r="25" fill="#D9C8AE" stroke="#c0a378" stroke-width="2px"/><text text-anchor="middle" pointer-events="none" font-family="sans-serif" dy="1.5625" font-size="25" fill="#2A2C34"/><text text-anchor="middle" pointer-events="none" x="0" y="5" font-size="10px" fill="#2A2C34" font-family="sans-serif"> Sandak…</text></g><g class="node" transform="translate(158.57255872247896,115.62620117071947)"><circle class="outline" cx="0" cy="0" r="25" fill="#F16667" stroke="#eb2728" stroke-width="2px"/><text text-anchor="middle" pointer-events="none" font-family="sans-serif" dy="1.5625" font-size="25" fill="#FFFFFF"/><text text-anchor="middle" pointer-events="none" x="0" y="5" font-size="10px" fill="#FFFFFF" font-family="sans-serif"> Rimbik</text></g><g class="node" transform="translate(81.91757109203041,39.21448164982794)"><circle class="outline" cx="0" cy="0" r="25" fill="#8DCC93" stroke="#5db665" stroke-width="2px"/><text text-anchor="middle" pointer-events="none" font-family="sans-serif" dy="1.5625" font-size="25" fill="#2A2C34"/><text text-anchor="middle" pointer-events="none" x="0" y="5" font-size="10px" fill="#2A2C34" font-family="sans-serif"> BhikeBh…</text></g></g></svg>