<svg xmlns="http://www.w3.org/2000/svg" width="1094.095703125" height="923.1629638671875" viewBox="-460.1508483886719 -587.0445556640625 1094.095703125 923.1629638671875"><title>Neo4j Graph Visualization</title><desc>Created using Neo4j (http://www.neo4j.com/)</desc><g class="layer relationships"><g class="relationship" transform="translate(191.520444730875 164.3094565081271) rotate(190.45571277986642)"><path class="outline" fill="#A5ABB6" stroke="none" d="M 25 0.5 L 48.527881948045646 0.5 L 48.527881948045646 -0.5 L 25 -0.5 Z M 82.97319444804565 0.5 L 106.50107639609129 0.5 L 106.50107639609129 3.5 L 113.50107639609129 0 L 106.50107639609129 -3.5 L 106.50107639609129 -0.5 L 82.97319444804565 -0.5 Z"/><text text-anchor="middle" pointer-events="none" font-size="8px" fill="#000000" x="65.75053819804565" y="3" transform="rotate(180 65.75053819804565 0)" font-family="sans-serif">ORIGIN</text></g><g class="relationship" transform="translate(191.520444730875 164.3094565081271) rotate(226.85543618134602)"><path class="outline" fill="#A5ABB6" stroke="none" d="M 25 0.5 L 45.106103342588796 0.5 L 45.106103342588796 -0.5 L 25 -0.5 Z M 104.2936033425888 0.5 L 124.39970668517759 0.5 L 124.39970668517759 3.5 L 131.3997066851776 0 L 124.39970668517759 -3.5 L 124.39970668517759 -0.5 L 104.2936033425888 -0.5 Z"/><text text-anchor="middle" pointer-events="none" font-size="8px" fill="#000000" x="74.6998533425888" y="3" transform="rotate(180 74.6998533425888 0)" font-family="sans-serif">DESTINATION</text></g><g class="relationship" transform="translate(-96.95564456836206 45.56287456218896) rotate(361.46189887839387)"><path class="outline" fill="#A5ABB6" stroke="none" d="M 25 0.5 L 57.6975430142557 0.5 L 57.6975430142557 -0.5 L 25 -0.5 Z M 116.8850430142557 0.5 L 149.5825860285114 0.5 L 149.5825860285114 3.5 L 156.5825860285114 0 L 149.5825860285114 -3.5 L 149.5825860285114 -0.5 L 116.8850430142557 -0.5 Z"/><text text-anchor="middle" pointer-events="none" font-size="8px" fill="#000000" x="87.2912930142557" y="3" font-family="sans-serif">DESTINATION</text></g><g class="relationship" transform="translate(-96.95564456836206 45.56287456218896) rotate(225.7269000530714)"><path class="outline" fill="#A5ABB6" stroke="none" d="M 25 0.5 L 83.37182368602855 0.5 L 83.37182368602855 -0.5 L 25 -0.5 Z M 117.81713618602855 0.5 L 176.1889598720571 0.5 L 176.1889598720571 3.5 L 183.1889598720571 0 L 176.1889598720571 -3.5 L 176.1889598720571 -0.5 L 117.81713618602855 -0.5 Z"/><text text-anchor="middle" pointer-events="none" font-size="8px" fill="#000000" x="100.59447993602855" y="3" transform="rotate(180 100.59447993602855 0)" font-family="sans-serif">ORIGIN</text></g><g class="relationship" transform="translate(97.03437834839467 -130.73604489130574) rotate(535.4117251194051)"><path class="outline" fill="#A5ABB6" stroke="none" d="M 25 0.5 L 137.11291865897743 0.5 L 137.11291865897743 -0.5 L 25 -0.5 Z M 196.30041865897743 0.5 L 308.41333731795487 0.5 L 308.41333731795487 3.5 L 315.41333731795487 0 L 308.41333731795487 -3.5 L 308.41333731795487 -0.5 L 196.30041865897743 -0.5 Z"/><text text-anchor="middle" pointer-events="none" font-size="8px" fill="#000000" x="166.70666865897743" y="3" transform="rotate(180 166.70666865897743 0)" font-family="sans-serif">DESTINATION</text></g><g class="relationship" transform="translate(97.03437834839467 -130.73604489130574) rotate(342.16193426941095)"><path class="outline" fill="#A5ABB6" stroke="none" d="M 25 0.5 L 127.25301844551709 0.5 L 127.25301844551709 -0.5 L 25 -0.5 Z M 161.69833094551709 0.5 L 263.95134939103417 0.5 L 263.95134939103417 3.5 L 270.95134939103417 0 L 263.95134939103417 -3.5 L 263.95134939103417 -0.5 L 161.69833094551709 -0.5 Z"/><text text-anchor="middle" pointer-events="none" font-size="8px" fill="#000000" x="144.47567469551709" y="3" font-family="sans-serif">ORIGIN</text></g><g class="relationship" transform="translate(480.5536604557816 -37.21811537967745) rotate(241.07024579422938)"><path class="outline" fill="#A5ABB6" stroke="none" d="M 25 0.5 L 84.4951394390461 0.5 L 84.4951394390461 -0.5 L 25 -0.5 Z M 118.9404519390461 0.5 L 178.4355913780922 0.5 L 178.4355913780922 3.5 L 185.4355913780922 0 L 178.4355913780922 -3.5 L 178.4355913780922 -0.5 L 118.9404519390461 -0.5 Z"/><text text-anchor="middle" pointer-events="none" font-size="8px" fill="#000000" x="101.7177956890461" y="3" transform="rotate(180 101.7177956890461 0)" font-family="sans-serif">ORIGIN</text></g><g class="relationship" transform="translate(480.5536604557816 -37.21811537967745) rotate(372.76511221286887)"><path class="outline" fill="#A5ABB6" stroke="none" d="M 25 0.5 L 30.678046919492893 0.5 L 30.678046919492893 -0.5 L 25 -0.5 Z M 89.86554691949289 0.5 L 95.54359383898579 0.5 L 95.54359383898579 3.5 L 102.54359383898579 0 L 95.54359383898579 -3.5 L 95.54359383898579 -0.5 L 89.86554691949289 -0.5 Z"/><text text-anchor="middle" pointer-events="none" font-size="8px" fill="#000000" x="60.27179691949289" y="3" font-family="sans-serif">DESTINATION</text></g><g class="relationship" transform="translate(479.6115067538378 -96.58454543709033) rotate(231.059805835813)"><path class="outline" fill="#A5ABB6" stroke="none" d="M 25 0.5 L 59.50956111624781 0.5 L 59.50956111624781 -0.5 L 25 -0.5 Z M 93.95487361624781 0.5 L 128.46443473249562 0.5 L 128.46443473249562 3.5 L 135.46443473249562 0 L 128.46443473249562 -3.5 L 128.46443473249562 -0.5 L 93.95487361624781 -0.5 Z"/><text text-anchor="middle" pointer-events="none" font-size="8px" fill="#000000" x="76.73221736624781" y="3" transform="rotate(180 76.73221736624781 0)" font-family="sans-serif">ORIGIN</text></g><g class="relationship" transform="translate(479.6115067538378 -96.58454543709033) rotate(394.9350401282295)"><path class="outline" fill="#A5ABB6" stroke="none" d="M 25 0.5 L 43.347523388914254 0.5 L 43.347523388914254 -0.5 L 25 -0.5 Z M 102.53502338891425 0.5 L 120.88254677782851 0.5 L 120.88254677782851 3.5 L 127.88254677782851 0 L 120.88254677782851 -3.5 L 120.88254677782851 -0.5 L 102.53502338891425 -0.5 Z"/><text text-anchor="middle" pointer-events="none" font-size="8px" fill="#000000" x="72.94127338891425" y="3" font-family="sans-serif">DESTINATION</text></g><g class="relationship" transform="translate(511.3524937846649 -147.62913954750397) rotate(209.0881183390453)"><path class="outline" fill="#A5ABB6" stroke="none" d="M 25 0.5 L 55.143228546718674 0.5 L 55.143228546718674 -0.5 L 25 -0.5 Z M 89.58854104671867 0.5 L 119.73176959343735 0.5 L 119.73176959343735 3.5 L 126.73176959343735 0 L 119.73176959343735 -3.5 L 119.73176959343735 -0.5 L 89.58854104671867 -0.5 Z"/><text text-anchor="middle" pointer-events="none" font-size="8px" fill="#000000" x="72.36588479671867" y="3" transform="rotate(180 72.36588479671867 0)" font-family="sans-serif">ORIGIN</text></g><g class="relationship" transform="translate(511.3524937846649 -147.62913954750397) rotate(415.9685678526001)"><path class="outline" fill="#A5ABB6" stroke="none" d="M 25 0.5 L 50.52351074612875 0.5 L 50.52351074612875 -0.5 L 25 -0.5 Z M 109.71101074612875 0.5 L 135.2345214922575 0.5 L 135.2345214922575 3.5 L 142.2345214922575 0 L 135.2345214922575 -3.5 L 135.2345214922575 -0.5 L 109.71101074612875 -0.5 Z"/><text text-anchor="middle" pointer-events="none" font-size="8px" fill="#000000" x="80.11726074612875" y="3" font-family="sans-serif">DESTINATION</text></g><g class="relationship" transform="translate(539.192236560028 -95.1884359413899) rotate(218.19042444606373)"><path class="outline" fill="#A5ABB6" stroke="none" d="M 25 0.5 L 81.33978999988138 0.5 L 81.33978999988138 -0.5 L 25 -0.5 Z M 115.78510249988138 0.5 L 172.12489249976275 0.5 L 172.12489249976275 3.5 L 179.12489249976275 0 L 172.12489249976275 -3.5 L 172.12489249976275 -0.5 L 115.78510249988138 -0.5 Z"/><text text-anchor="middle" pointer-events="none" font-size="8px" fill="#000000" x="98.56244624988138" y="3" transform="rotate(180 98.56244624988138 0)" font-family="sans-serif">ORIGIN</text></g><g class="relationship" transform="translate(539.192236560028 -95.1884359413899) rotate(412.6484112431603)"><path class="outline" fill="#A5ABB6" stroke="none" d="M 25 0.5 L 26.352445360213764 0.5 L 26.352445360213764 -0.5 L 25 -0.5 Z M 75.02432036021376 0.5 L 76.37676572042753 0.5 L 76.37676572042753 3.5 L 83.37676572042753 0 L 76.37676572042753 -3.5 L 76.37676572042753 -0.5 L 75.02432036021376 -0.5 Z"/><text text-anchor="middle" pointer-events="none" font-size="8px" fill="#000000" x="50.688382860213764" y="3" font-family="sans-serif">DESTINA…</text></g><g class="relationship" transform="translate(570.7667095017093 -149.26526390691322) rotate(200.58892630274124)"><path class="outline" fill="#A5ABB6" stroke="none" d="M 25 0.5 L 81.83202627767615 0.5 L 81.83202627767615 -0.5 L 25 -0.5 Z M 116.27733877767615 0.5 L 173.1093650553523 0.5 L 173.1093650553523 3.5 L 180.1093650553523 0 L 173.1093650553523 -3.5 L 173.1093650553523 -0.5 L 116.27733877767615 -0.5 Z"/><text text-anchor="middle" pointer-events="none" font-size="8px" fill="#000000" x="99.05468252767615" y="3" transform="rotate(180 99.05468252767615 0)" font-family="sans-serif">ORIGIN</text></g><g class="relationship" transform="translate(570.7667095017093 -149.26526390691322) rotate(436.3022512406601)"><path class="outline" fill="#A5ABB6" stroke="none" d="M 25 0.5 L 39.07303847192598 0.5 L 39.07303847192598 -0.5 L 25 -0.5 Z M 98.26053847192598 0.5 L 112.33357694385197 0.5 L 112.33357694385197 3.5 L 119.33357694385197 0 L 112.33357694385197 -3.5 L 112.33357694385197 -0.5 L 98.26053847192598 -0.5 Z"/><text text-anchor="middle" pointer-events="none" font-size="8px" fill="#000000" x="68.66678847192598" y="3" font-family="sans-serif">DESTINATION</text></g><g class="relationship" transform="translate(113.4476107976161 233.59684720880617) rotate(238.3825120573008)"><path class="outline" fill="#A5ABB6" stroke="none" d="M 25 0.5 L 25.457690852245534 0.5 L 25.457690852245534 -0.5 L 25 -0.5 Z M 78.42253460224553 0.5 L 78.88022545449107 0.5 L 78.88022545449107 3.5 L 85.88022545449107 0 L 78.88022545449107 -3.5 L 78.88022545449107 -0.5 L 78.42253460224553 -0.5 Z"/><text text-anchor="middle" pointer-events="none" font-size="8px" fill="#000000" x="51.940112727245534" y="3" transform="rotate(180 51.940112727245534 0)" font-family="sans-serif">DESTINAT…</text></g><g class="relationship" transform="translate(113.4476107976161 233.59684720880617) rotate(261.05125483307893)"><path class="outline" fill="#A5ABB6" stroke="none" d="M 25 0.5 L 72.10799142624869 0.5 L 72.10799142624869 -0.5 L 25 -0.5 Z M 106.55330392624869 0.5 L 153.66129535249738 0.5 L 153.66129535249738 3.5 L 160.66129535249738 0 L 153.66129535249738 -3.5 L 153.66129535249738 -0.5 L 106.55330392624869 -0.5 Z"/><text text-anchor="middle" pointer-events="none" font-size="8px" fill="#000000" x="89.33064767624869" y="3" transform="rotate(180 89.33064767624869 0)" font-family="sans-serif">ORIGIN</text></g><g class="relationship" transform="translate(171.49398431328137 220.38300312262666) rotate(214.95416404155776)"><path class="outline" fill="#A5ABB6" stroke="none" d="M 25 0.5 L 50.14933228455236 0.5 L 50.14933228455236 -0.5 L 25 -0.5 Z M 84.59464478455236 0.5 L 109.74397706910472 0.5 L 109.74397706910472 3.5 L 116.74397706910472 0 L 109.74397706910472 -3.5 L 109.74397706910472 -0.5 L 84.59464478455236 -0.5 Z"/><text text-anchor="middle" pointer-events="none" font-size="8px" fill="#000000" x="67.37198853455236" y="3" transform="rotate(180 67.37198853455236 0)" font-family="sans-serif">ORIGIN</text></g><g class="relationship" transform="translate(171.49398431328137 220.38300312262666) rotate(242.94356607675536)"><path class="outline" fill="#A5ABB6" stroke="none" d="M 25 0.5 L 62.45723209577359 0.5 L 62.45723209577359 -0.5 L 25 -0.5 Z M 121.64473209577359 0.5 L 159.10196419154718 0.5 L 159.10196419154718 3.5 L 166.10196419154718 0 L 159.10196419154718 -3.5 L 159.10196419154718 -0.5 L 121.64473209577359 -0.5 Z"/><text text-anchor="middle" pointer-events="none" font-size="8px" fill="#000000" x="92.05098209577359" y="3" transform="rotate(180 92.05098209577359 0)" font-family="sans-serif">DESTINATION</text></g><g class="relationship" transform="translate(-20.897286808049323 -229.7021871251872) rotate(429.3536449360317)"><path class="outline" fill="#A5ABB6" stroke="none" d="M 25 0.5 L 128.83132695321814 0.5 L 128.83132695321814 -0.5 L 25 -0.5 Z M 163.27663945321814 0.5 L 267.1079664064363 0.5 L 267.1079664064363 3.5 L 274.1079664064363 0 L 267.1079664064363 -3.5 L 267.1079664064363 -0.5 L 163.27663945321814 -0.5 Z"/><text text-anchor="middle" pointer-events="none" font-size="8px" fill="#000000" x="146.05398320321814" y="3" font-family="sans-serif">ORIGIN</text></g><g class="relationship" transform="translate(-20.897286808049323 -229.7021871251872) rotate(250.46057739621585)"><path class="outline" fill="#A5ABB6" stroke="none" d="M 25 0.5 L 103.27595606841626 0.5 L 103.27595606841626 -0.5 L 25 -0.5 Z M 162.46345606841626 0.5 L 240.73941213683253 0.5 L 240.73941213683253 3.5 L 247.73941213683253 0 L 240.73941213683253 -3.5 L 240.73941213683253 -0.5 L 162.46345606841626 -0.5 Z"/><text text-anchor="middle" pointer-events="none" font-size="8px" fill="#000000" x="132.86970606841626" y="3" transform="rotate(180 132.86970606841626 0)" font-family="sans-serif">DESTINATION</text></g><g class="relationship" transform="translate(138.96164476211433 -386.3074813964679) rotate(201.80067218379918)"><path class="outline" fill="#A5ABB6" stroke="none" d="M 25 0.5 L 102.11524463914643 0.5 L 102.11524463914643 -0.5 L 25 -0.5 Z M 161.30274463914643 0.5 L 238.41798927829285 0.5 L 238.41798927829285 3.5 L 245.41798927829285 0 L 238.41798927829285 -3.5 L 238.41798927829285 -0.5 L 161.30274463914643 -0.5 Z"/><text text-anchor="middle" pointer-events="none" font-size="8px" fill="#000000" x="131.70899463914643" y="3" transform="rotate(180 131.70899463914643 0)" font-family="sans-serif">DESTINATION</text></g><g class="relationship" transform="translate(138.96164476211433 -386.3074813964679) rotate(394.5171512794165)"><path class="outline" fill="#A5ABB6" stroke="none" d="M 25 0.5 L 124.79261941185189 0.5 L 124.79261941185189 -0.5 L 25 -0.5 Z M 159.2379319118519 0.5 L 259.0305513237038 0.5 L 259.0305513237038 3.5 L 266.0305513237038 0 L 259.0305513237038 -3.5 L 259.0305513237038 -0.5 L 159.2379319118519 -0.5 Z"/><text text-anchor="middle" pointer-events="none" font-size="8px" fill="#000000" x="142.0152756618519" y="3" font-family="sans-serif">ORIGIN</text></g><g class="relationship" transform="translate(37.181817072637834 -242.41325323541807) rotate(440.8011917739152)"><path class="outline" fill="#A5ABB6" stroke="none" d="M 25 0.5 L 115.11664411516739 0.5 L 115.11664411516739 -0.5 L 25 -0.5 Z M 174.3041441151674 0.5 L 264.4207882303348 0.5 L 264.4207882303348 3.5 L 271.4207882303348 0 L 264.4207882303348 -3.5 L 264.4207882303348 -0.5 L 174.3041441151674 -0.5 Z"/><text text-anchor="middle" pointer-events="none" font-size="8px" fill="#000000" x="144.7103941151674" y="3" font-family="sans-serif">DESTINATION</text></g><g class="relationship" transform="translate(37.181817072637834 -242.41325323541807) rotate(238.5720482041653)"><path class="outline" fill="#A5ABB6" stroke="none" d="M 25 0.5 L 122.44077592911333 0.5 L 122.44077592911333 -0.5 L 25 -0.5 Z M 156.88608842911333 0.5 L 254.32686435822666 0.5 L 254.32686435822666 3.5 L 261.32686435822666 0 L 254.32686435822666 -3.5 L 254.32686435822666 -0.5 L 156.88608842911333 -0.5 Z"/><text text-anchor="middle" pointer-events="none" font-size="8px" fill="#000000" x="139.66343217911333" y="3" transform="rotate(180 139.66343217911333 0)" font-family="sans-serif">ORIGIN</text></g><g class="relationship" transform="translate(197.5690532937104 -379.0157887132725) rotate(199.17941828726276)"><path class="outline" fill="#A5ABB6" stroke="none" d="M 25 0.5 L 130.84871815660878 0.5 L 130.84871815660878 -0.5 L 25 -0.5 Z M 190.03621815660878 0.5 L 295.88493631321757 0.5 L 295.88493631321757 3.5 L 302.88493631321757 0 L 295.88493631321757 -3.5 L 295.88493631321757 -0.5 L 190.03621815660878 -0.5 Z"/><text text-anchor="middle" pointer-events="none" font-size="8px" fill="#000000" x="160.44246815660878" y="3" transform="rotate(180 160.44246815660878 0)" font-family="sans-serif">DESTINATION</text></g><g class="relationship" transform="translate(197.5690532937104 -379.0157887132725) rotate(401.02094148521127)"><path class="outline" fill="#A5ABB6" stroke="none" d="M 25 0.5 L 99.35448207587105 0.5 L 99.35448207587105 -0.5 L 25 -0.5 Z M 133.79979457587103 0.5 L 208.1542766517421 0.5 L 208.1542766517421 3.5 L 215.1542766517421 0 L 208.1542766517421 -3.5 L 208.1542766517421 -0.5 L 133.79979457587103 -0.5 Z"/><text text-anchor="middle" pointer-events="none" font-size="8px" fill="#000000" x="116.57713832587105" y="3" font-family="sans-serif">ORIGIN</text></g><g class="relationship" transform="translate(161.5757888287546 -331.8623999439073) rotate(209.5039570282712)"><path class="outline" fill="#A5ABB6" stroke="none" d="M 25 0.5 L 124.14250000686462 0.5 L 124.14250000686462 -0.5 L 25 -0.5 Z M 183.33000000686462 0.5 L 282.47250001372925 0.5 L 282.47250001372925 3.5 L 289.47250001372925 0 L 282.47250001372925 -3.5 L 282.47250001372925 -0.5 L 183.33000000686462 -0.5 Z"/><text text-anchor="middle" pointer-events="none" font-size="8px" fill="#000000" x="153.73625000686462" y="3" transform="rotate(180 153.73625000686462 0)" font-family="sans-serif">DESTINATION</text></g><g class="relationship" transform="translate(161.5757888287546 -331.8623999439073) rotate(386.95982925766947)"><path class="outline" fill="#A5ABB6" stroke="none" d="M 25 0.5 L 101.1086040660948 0.5 L 101.1086040660948 -0.5 L 25 -0.5 Z M 135.5539165660948 0.5 L 211.6625206321896 0.5 L 211.6625206321896 3.5 L 218.6625206321896 0 L 211.6625206321896 -3.5 L 211.6625206321896 -0.5 L 135.5539165660948 -0.5 Z"/><text text-anchor="middle" pointer-events="none" font-size="8px" fill="#000000" x="118.3312603160948" y="3" font-family="sans-serif">ORIGIN</text></g><g class="relationship" transform="translate(17.08458906340981 -171.08791948388367) rotate(442.974706657656)"><path class="outline" fill="#A5ABB6" stroke="none" d="M 25 0.5 L 123.21116231209098 0.5 L 123.21116231209098 -0.5 L 25 -0.5 Z M 182.39866231209098 0.5 L 280.60982462418195 0.5 L 280.60982462418195 3.5 L 287.60982462418195 0 L 280.60982462418195 -3.5 L 280.60982462418195 -0.5 L 182.39866231209098 -0.5 Z"/><text text-anchor="middle" pointer-events="none" font-size="8px" fill="#000000" x="152.80491231209098" y="3" font-family="sans-serif">DESTINATION</text></g><g class="relationship" transform="translate(17.08458906340981 -171.08791948388367) rotate(247.7396731219083)"><path class="outline" fill="#A5ABB6" stroke="none" d="M 25 0.5 L 149.81030872390744 0.5 L 149.81030872390744 -0.5 L 25 -0.5 Z M 184.25562122390744 0.5 L 309.0659299478149 0.5 L 309.0659299478149 3.5 L 316.0659299478149 0 L 309.0659299478149 -3.5 L 309.0659299478149 -0.5 L 184.25562122390744 -0.5 Z"/><text text-anchor="middle" pointer-events="none" font-size="8px" fill="#000000" x="167.03296497390744" y="3" transform="rotate(180 167.03296497390744 0)" font-family="sans-serif">ORIGIN</text></g><g class="relationship" transform="translate(-137.5657878954694 -318.9693608532144) rotate(278.6257667333907)"><path class="outline" fill="#A5ABB6" stroke="none" d="M 25 0.5 L 51.74870498161184 0.5 L 51.74870498161184 -0.5 L 25 -0.5 Z M 110.93620498161184 0.5 L 137.68490996322367 0.5 L 137.68490996322367 3.5 L 144.68490996322367 0 L 137.68490996322367 -3.5 L 137.68490996322367 -0.5 L 110.93620498161184 -0.5 Z"/><text text-anchor="middle" pointer-events="none" font-size="8px" fill="#000000" x="81.34245498161184" y="3" font-family="sans-serif">DESTINATION</text></g><g class="relationship" transform="translate(-137.5657878954694 -318.9693608532144) rotate(475.9211314174183)"><path class="outline" fill="#A5ABB6" stroke="none" d="M 25 0.5 L 99.06023802734757 0.5 L 99.06023802734757 -0.5 L 25 -0.5 Z M 133.50555052734757 0.5 L 207.56578855469513 0.5 L 207.56578855469513 3.5 L 214.56578855469513 0 L 207.56578855469513 -3.5 L 207.56578855469513 -0.5 L 133.50555052734757 -0.5 Z"/><text text-anchor="middle" pointer-events="none" font-size="8px" fill="#000000" x="116.28289427734757" y="3" transform="rotate(180 116.28289427734757 0)" font-family="sans-serif">ORIGIN</text></g><g class="relationship" transform="translate(-196.29549006153636 -314.12884543775067) rotate(295.9982329638132)"><path class="outline" fill="#A5ABB6" stroke="none" d="M 25 0.5 L 62.925760497059386 0.5 L 62.925760497059386 -0.5 L 25 -0.5 Z M 122.11326049705939 0.5 L 160.03902099411877 0.5 L 160.03902099411877 3.5 L 167.03902099411877 0 L 160.03902099411877 -3.5 L 160.03902099411877 -0.5 L 122.11326049705939 -0.5 Z"/><text text-anchor="middle" pointer-events="none" font-size="8px" fill="#000000" x="92.51951049705939" y="3" font-family="sans-serif">DESTINATION</text></g><g class="relationship" transform="translate(-196.29549006153636 -314.12884543775067) rotate(462.31792878114555)"><path class="outline" fill="#A5ABB6" stroke="none" d="M 25 0.5 L 87.07094724933437 0.5 L 87.07094724933437 -0.5 L 25 -0.5 Z M 121.51625974933437 0.5 L 183.58720699866873 0.5 L 183.58720699866873 3.5 L 190.58720699866873 0 L 183.58720699866873 -3.5 L 183.58720699866873 -0.5 L 121.51625974933437 -0.5 Z"/><text text-anchor="middle" pointer-events="none" font-size="8px" fill="#000000" x="104.29360349933437" y="3" transform="rotate(180 104.29360349933437 0)" font-family="sans-serif">ORIGIN</text></g><g class="relationship" transform="translate(-256.1305875037677 -307.7698920790665) rotate(308.823816490088)"><path class="outline" fill="#A5ABB6" stroke="none" d="M 25 0.5 L 81.7633044090544 0.5 L 81.7633044090544 -0.5 L 25 -0.5 Z M 140.9508044090544 0.5 L 197.7141088181088 0.5 L 197.7141088181088 3.5 L 204.7141088181088 0 L 197.7141088181088 -3.5 L 197.7141088181088 -0.5 L 140.9508044090544 -0.5 Z"/><text text-anchor="middle" pointer-events="none" font-size="8px" fill="#000000" x="111.3570544090544" y="3" font-family="sans-serif">DESTINATION</text></g><g class="relationship" transform="translate(-256.1305875037677 -307.7698920790665) rotate(446.1231301429922)"><path class="outline" fill="#A5ABB6" stroke="none" d="M 25 0.5 L 81.64419022123064 0.5 L 81.64419022123064 -0.5 L 25 -0.5 Z M 116.08950272123064 0.5 L 172.7336929424613 0.5 L 172.7336929424613 3.5 L 179.7336929424613 0 L 172.7336929424613 -3.5 L 172.7336929424613 -0.5 L 116.08950272123064 -0.5 Z"/><text text-anchor="middle" pointer-events="none" font-size="8px" fill="#000000" x="98.86684647123064" y="3" font-family="sans-serif">ORIGIN</text></g><g class="relationship" transform="translate(-231.34844953379158 -361.56504067143663) rotate(313.6082300144985)"><path class="outline" fill="#A5ABB6" stroke="none" d="M 25 0.5 L 53.340880830248295 0.5 L 53.340880830248295 -0.5 L 25 -0.5 Z M 112.5283808302483 0.5 L 140.8692616604966 0.5 L 140.8692616604966 3.5 L 147.8692616604966 0 L 140.8692616604966 -3.5 L 140.8692616604966 -0.5 L 112.5283808302483 -0.5 Z"/><text text-anchor="middle" pointer-events="none" font-size="8px" fill="#000000" x="82.9346308302483" y="3" font-family="sans-serif">DESTINATION</text></g><g class="relationship" transform="translate(-231.34844953379158 -361.56504067143663) rotate(452.42740325240715)"><path class="outline" fill="#A5ABB6" stroke="none" d="M 25 0.5 L 108.42339821588072 0.5 L 108.42339821588072 -0.5 L 25 -0.5 Z M 142.86871071588072 0.5 L 226.29210893176145 0.5 L 226.29210893176145 3.5 L 233.29210893176145 0 L 226.29210893176145 -3.5 L 226.29210893176145 -0.5 L 142.86871071588072 -0.5 Z"/><text text-anchor="middle" pointer-events="none" font-size="8px" fill="#000000" x="125.64605446588072" y="3" transform="rotate(180 125.64605446588072 0)" font-family="sans-serif">ORIGIN</text></g><g class="relationship" transform="translate(-35.5103443085074 -144.2368616145032) rotate(432.230081503318)"><path class="outline" fill="#A5ABB6" stroke="none" d="M 25 0.5 L 115.71167904770044 0.5 L 115.71167904770044 -0.5 L 25 -0.5 Z M 174.89917904770044 0.5 L 265.6108580954009 0.5 L 265.6108580954009 3.5 L 272.6108580954009 0 L 265.6108580954009 -3.5 L 265.6108580954009 -0.5 L 174.89917904770044 -0.5 Z"/><text text-anchor="middle" pointer-events="none" font-size="8px" fill="#000000" x="145.30542904770044" y="3" font-family="sans-serif">DESTINATION</text></g><g class="relationship" transform="translate(-35.5103443085074 -144.2368616145032) rotate(257.39224012617933)"><path class="outline" fill="#A5ABB6" stroke="none" d="M 25 0.5 L 154.75771982054056 0.5 L 154.75771982054056 -0.5 L 25 -0.5 Z M 189.20303232054056 0.5 L 318.9607521410811 0.5 L 318.9607521410811 3.5 L 325.9607521410811 0 L 318.9607521410811 -3.5 L 318.9607521410811 -0.5 L 189.20303232054056 -0.5 Z"/><text text-anchor="middle" pointer-events="none" font-size="8px" fill="#000000" x="171.98037607054056" y="3" transform="rotate(180 171.98037607054056 0)" font-family="sans-serif">ORIGIN</text></g><g class="relationship" transform="translate(-221.3836584410567 -260.2146399875348) rotate(295.75138999657065)"><path class="outline" fill="#A5ABB6" stroke="none" d="M 25 0.5 L 105.02588596939538 0.5 L 105.02588596939538 -0.5 L 25 -0.5 Z M 139.47119846939538 0.5 L 219.49708443879075 0.5 L 219.49708443879075 3.5 L 226.49708443879075 0 L 219.49708443879075 -3.5 L 219.49708443879075 -0.5 L 139.47119846939538 -0.5 Z"/><text text-anchor="middle" pointer-events="none" font-size="8px" fill="#000000" x="122.24854221939538" y="3" font-family="sans-serif">ORIGIN</text></g><g class="relationship" transform="translate(-221.3836584410567 -260.2146399875348) rotate(457.59813109677134)"><path class="outline" fill="#A5ABB6" stroke="none" d="M 25 0.5 L 45.955281838092844 0.5 L 45.955281838092844 -0.5 L 25 -0.5 Z M 105.14278183809284 0.5 L 126.09806367618569 0.5 L 126.09806367618569 3.5 L 133.0980636761857 0 L 126.09806367618569 -3.5 L 126.09806367618569 -0.5 L 105.14278183809284 -0.5 Z"/><text text-anchor="middle" pointer-events="none" font-size="8px" fill="#000000" x="75.54903183809284" y="3" transform="rotate(180 75.54903183809284 0)" font-family="sans-serif">DESTINATION</text></g><g class="relationship" transform="translate(-162.15765485062084 -265.41792232782) rotate(282.74070822390814)"><path class="outline" fill="#A5ABB6" stroke="none" d="M 25 0.5 L 80.35817615970171 0.5 L 80.35817615970171 -0.5 L 25 -0.5 Z M 139.5456761597017 0.5 L 194.90385231940343 0.5 L 194.90385231940343 3.5 L 201.90385231940343 0 L 194.90385231940343 -3.5 L 194.90385231940343 -0.5 L 139.5456761597017 -0.5 Z"/><text text-anchor="middle" pointer-events="none" font-size="8px" fill="#000000" x="109.95192615970171" y="3" font-family="sans-serif">DESTINATION</text></g><g class="relationship" transform="translate(-162.15765485062084 -265.41792232782) rotate(476.33067073567054)"><path class="outline" fill="#A5ABB6" stroke="none" d="M 25 0.5 L 69.605589341571 0.5 L 69.605589341571 -0.5 L 25 -0.5 Z M 104.050901841571 0.5 L 148.656491183142 0.5 L 148.656491183142 3.5 L 155.656491183142 0 L 148.656491183142 -3.5 L 148.656491183142 -0.5 L 104.050901841571 -0.5 Z"/><text text-anchor="middle" pointer-events="none" font-size="8px" fill="#000000" x="86.828245591571" y="3" transform="rotate(180 86.828245591571 0)" font-family="sans-serif">ORIGIN</text></g><g class="relationship" transform="translate(200.74048316425765 15.563949317068593) rotate(499.6348237708107)"><path class="outline" fill="#A5ABB6" stroke="none" d="M 25 0.5 L 74.70669536582727 0.5 L 74.70669536582727 -0.5 L 25 -0.5 Z M 109.15200786582727 0.5 L 158.85870323165454 0.5 L 158.85870323165454 3.5 L 165.85870323165454 0 L 158.85870323165454 -3.5 L 158.85870323165454 -0.5 L 109.15200786582727 -0.5 Z"/><text text-anchor="middle" pointer-events="none" font-size="8px" fill="#000000" x="91.92935161582727" y="3" transform="rotate(180 91.92935161582727 0)" font-family="sans-serif">ORIGIN</text></g><g class="relationship" transform="translate(200.74048316425765 15.563949317068593) rotate(269.8075659954504)"><path class="outline" fill="#A5ABB6" stroke="none" d="M 25 0.5 L 91.33204122619262 0.5 L 91.33204122619262 -0.5 L 25 -0.5 Z M 150.51954122619262 0.5 L 216.85158245238523 0.5 L 216.85158245238523 3.5 L 223.85158245238523 0 L 216.85158245238523 -3.5 L 216.85158245238523 -0.5 L 150.51954122619262 -0.5 Z"/><text text-anchor="middle" pointer-events="none" font-size="8px" fill="#000000" x="120.92579122619262" y="3" transform="rotate(180 120.92579122619262 0)" font-family="sans-serif">DESTINATION</text></g><g class="relationship" transform="translate(72.94133214283906 -429.5481833765942) rotate(417.1008631573054)"><path class="outline" fill="#A5ABB6" stroke="none" d="M 25 0.5 L 83.78059359620723 0.5 L 83.78059359620723 -0.5 L 25 -0.5 Z M 142.9680935962072 0.5 L 201.74868719241445 0.5 L 201.74868719241445 3.5 L 208.74868719241445 0 L 201.74868719241445 -3.5 L 201.74868719241445 -0.5 L 142.9680935962072 -0.5 Z"/><text text-anchor="middle" pointer-events="none" font-size="8px" fill="#000000" x="113.37434359620723" y="3" font-family="sans-serif">DESTINATION</text></g><g class="relationship" transform="translate(72.94133214283906 -429.5481833765942) rotate(197.1722606047913)"><path class="outline" fill="#A5ABB6" stroke="none" d="M 25 0.5 L 76.12349802369882 0.5 L 76.12349802369882 -0.5 L 25 -0.5 Z M 110.56881052369882 0.5 L 161.69230854739763 0.5 L 161.69230854739763 3.5 L 168.69230854739763 0 L 161.69230854739763 -3.5 L 161.69230854739763 -0.5 L 110.56881052369882 -0.5 Z"/><text text-anchor="middle" pointer-events="none" font-size="8px" fill="#000000" x="93.34615427369882" y="3" transform="rotate(180 93.34615427369882 0)" font-family="sans-serif">ORIGIN</text></g><g class="relationship" transform="translate(33.80590534094494 -384.9928197206767) rotate(402.40706403763994)"><path class="outline" fill="#A5ABB6" stroke="none" d="M 25 0.5 L 79.38257615504301 0.5 L 79.38257615504301 -0.5 L 25 -0.5 Z M 138.570076155043 0.5 L 192.95265231008602 0.5 L 192.95265231008602 3.5 L 199.95265231008602 0 L 192.95265231008602 -3.5 L 192.95265231008602 -0.5 L 138.570076155043 -0.5 Z"/><text text-anchor="middle" pointer-events="none" font-size="8px" fill="#000000" x="108.97632615504301" y="3" font-family="sans-serif">DESTINATION</text></g><g class="relationship" transform="translate(33.80590534094494 -384.9928197206767) rotate(214.8855524367538)"><path class="outline" fill="#A5ABB6" stroke="none" d="M 25 0.5 L 68.2222680860515 0.5 L 68.2222680860515 -0.5 L 25 -0.5 Z M 102.6675805860515 0.5 L 145.889848672103 0.5 L 145.889848672103 3.5 L 152.889848672103 0 L 145.889848672103 -3.5 L 145.889848672103 -0.5 L 102.6675805860515 -0.5 Z"/><text text-anchor="middle" pointer-events="none" font-size="8px" fill="#000000" x="85.4449243360515" y="3" transform="rotate(180 85.4449243360515 0)" font-family="sans-serif">ORIGIN</text></g><g class="relationship" transform="translate(-200.81863970837557 35.24867674974025) rotate(382.0845356791317)"><path class="outline" fill="#A5ABB6" stroke="none" d="M 25 0.5 L 105.11552105904593 0.5 L 105.11552105904593 -0.5 L 25 -0.5 Z M 164.30302105904593 0.5 L 244.41854211809186 0.5 L 244.41854211809186 3.5 L 251.41854211809186 0 L 244.41854211809186 -3.5 L 244.41854211809186 -0.5 L 164.30302105904593 -0.5 Z"/><text text-anchor="middle" pointer-events="none" font-size="8px" fill="#000000" x="134.70927105904593" y="3" font-family="sans-serif">DESTINATION</text></g><g class="relationship" transform="translate(-200.81863970837557 35.24867674974025) rotate(223.7446518753647)"><path class="outline" fill="#A5ABB6" stroke="none" d="M 25 0.5 L 131.15811837527338 0.5 L 131.15811837527338 -0.5 L 25 -0.5 Z M 165.60343087527338 0.5 L 271.76154925054675 0.5 L 271.76154925054675 3.5 L 278.76154925054675 0 L 271.76154925054675 -3.5 L 271.76154925054675 -0.5 L 165.60343087527338 -0.5 Z"/><text text-anchor="middle" pointer-events="none" font-size="8px" fill="#000000" x="148.38077462527338" y="3" transform="rotate(180 148.38077462527338 0)" font-family="sans-serif">ORIGIN</text></g><g class="relationship" transform="translate(-314.64449702789364 -341.0734749633062) rotate(482.4223107104604)"><path class="outline" fill="#A5ABB6" stroke="none" d="M 25 0.5 L 65.4039234878289 0.5 L 65.4039234878289 -0.5 L 25 -0.5 Z M 124.5914234878289 0.5 L 164.9953469756578 0.5 L 164.9953469756578 3.5 L 171.9953469756578 0 L 164.9953469756578 -3.5 L 164.9953469756578 -0.5 L 124.5914234878289 -0.5 Z"/><text text-anchor="middle" pointer-events="none" font-size="8px" fill="#000000" x="94.9976734878289" y="3" transform="rotate(180 94.9976734878289 0)" font-family="sans-serif">DESTINATION</text></g><g class="relationship" transform="translate(-314.64449702789364 -341.0734749633062) rotate(324.2756922123142)"><path class="outline" fill="#A5ABB6" stroke="none" d="M 25 0.5 L 104.01194412009315 0.5 L 104.01194412009315 -0.5 L 25 -0.5 Z M 138.45725662009315 0.5 L 217.4692007401863 0.5 L 217.4692007401863 3.5 L 224.4692007401863 0 L 217.4692007401863 -3.5 L 217.4692007401863 -0.5 L 138.45725662009315 -0.5 Z"/><text text-anchor="middle" pointer-events="none" font-size="8px" fill="#000000" x="121.23460037009315" y="3" font-family="sans-serif">ORIGIN</text></g><g class="relationship" transform="translate(-10.313528683855552 307.11840286017673) rotate(291.34565427264624)"><path class="outline" fill="#A5ABB6" stroke="none" d="M 25 0.5 L 69.43368061413153 0.5 L 69.43368061413153 -0.5 L 25 -0.5 Z M 103.87899311413153 0.5 L 148.31267372826306 0.5 L 148.31267372826306 3.5 L 155.31267372826306 0 L 148.31267372826306 -3.5 L 148.31267372826306 -0.5 L 103.87899311413153 -0.5 Z"/><text text-anchor="middle" pointer-events="none" font-size="8px" fill="#000000" x="86.65633686413153" y="3" font-family="sans-serif">ORIGIN</text></g><g class="relationship" transform="translate(-10.313528683855552 307.11840286017673) rotate(238.88078312968253)"><path class="outline" fill="#A5ABB6" stroke="none" d="M 25 0.5 L 51.673809594940934 0.5 L 51.673809594940934 -0.5 L 25 -0.5 Z M 110.86130959494093 0.5 L 137.53511918988187 0.5 L 137.53511918988187 3.5 L 144.53511918988187 0 L 137.53511918988187 -3.5 L 137.53511918988187 -0.5 L 110.86130959494093 -0.5 Z"/><text text-anchor="middle" pointer-events="none" font-size="8px" fill="#000000" x="81.26755959494093" y="3" transform="rotate(180 81.26755959494093 0)" font-family="sans-serif">DESTINATION</text></g><g class="relationship" transform="translate(-147.71687307944478 -151.25106810392958) rotate(440.96911005079346)"><path class="outline" fill="#A5ABB6" stroke="none" d="M 25 0.5 L 125.48780331819205 0.5 L 125.48780331819205 -0.5 L 25 -0.5 Z M 184.67530331819205 0.5 L 285.1631066363841 0.5 L 285.1631066363841 3.5 L 292.1631066363841 0 L 285.1631066363841 -3.5 L 285.1631066363841 -0.5 L 184.67530331819205 -0.5 Z"/><text text-anchor="middle" pointer-events="none" font-size="8px" fill="#000000" x="155.08155331819205" y="3" font-family="sans-serif">DESTINATION</text></g><g class="relationship" transform="translate(-147.71687307944478 -151.25106810392958) rotate(276.05736686671435)"><path class="outline" fill="#A5ABB6" stroke="none" d="M 25 0.5 L 147.96110037123663 0.5 L 147.96110037123663 -0.5 L 25 -0.5 Z M 182.40641287123663 0.5 L 305.36751324247325 0.5 L 305.36751324247325 3.5 L 312.36751324247325 0 L 305.36751324247325 -3.5 L 305.36751324247325 -0.5 L 182.40641287123663 -0.5 Z"/><text text-anchor="middle" pointer-events="none" font-size="8px" fill="#000000" x="165.18375662123663" y="3" font-family="sans-serif">ORIGIN</text></g><g class="relationship" transform="translate(-11.286677700827402 247.54936163718125) rotate(301.5744437356208)"><path class="outline" fill="#A5ABB6" stroke="none" d="M 25 0.5 L 42.880317408525215 0.5 L 42.880317408525215 -0.5 L 25 -0.5 Z M 77.32562990852522 0.5 L 95.20594731705043 0.5 L 95.20594731705043 3.5 L 102.20594731705043 0 L 95.20594731705043 -3.5 L 95.20594731705043 -0.5 L 77.32562990852522 -0.5 Z"/><text text-anchor="middle" pointer-events="none" font-size="8px" fill="#000000" x="60.102973658525215" y="3" font-family="sans-serif">ORIGIN</text></g><g class="relationship" transform="translate(-11.286677700827402 247.54936163718125) rotate(224.64163700163533)"><path class="outline" fill="#A5ABB6" stroke="none" d="M 25 0.5 L 27.79463680467915 0.5 L 27.79463680467915 -0.5 L 25 -0.5 Z M 86.98213680467916 0.5 L 89.7767736093583 0.5 L 89.7767736093583 3.5 L 96.7767736093583 0 L 89.7767736093583 -3.5 L 89.7767736093583 -0.5 L 86.98213680467916 -0.5 Z"/><text text-anchor="middle" pointer-events="none" font-size="8px" fill="#000000" x="57.38838680467915" y="3" transform="rotate(180 57.38838680467915 0)" font-family="sans-serif">DESTINATION</text></g><g class="relationship" transform="translate(180.15332415539396 -98.46080561114512) rotate(477.71373377859953)"><path class="outline" fill="#A5ABB6" stroke="none" d="M 25 0.5 L 113.49201676201912 0.5 L 113.49201676201912 -0.5 L 25 -0.5 Z M 147.93732926201912 0.5 L 236.42934602403824 0.5 L 236.42934602403824 3.5 L 243.42934602403824 0 L 236.42934602403824 -3.5 L 236.42934602403824 -0.5 L 147.93732926201912 -0.5 Z"/><text text-anchor="middle" pointer-events="none" font-size="8px" fill="#000000" x="130.71467301201912" y="3" transform="rotate(180 130.71467301201912 0)" font-family="sans-serif">ORIGIN</text></g><g class="relationship" transform="translate(180.15332415539396 -98.46080561114512) rotate(271.48831280120027)"><path class="outline" fill="#A5ABB6" stroke="none" d="M 25 0.5 L 139.5713519072472 0.5 L 139.5713519072472 -0.5 L 25 -0.5 Z M 198.7588519072472 0.5 L 313.3302038144944 0.5 L 313.3302038144944 3.5 L 320.3302038144944 0 L 313.3302038144944 -3.5 L 313.3302038144944 -0.5 L 198.7588519072472 -0.5 Z"/><text text-anchor="middle" pointer-events="none" font-size="8px" fill="#000000" x="169.1651019072472" y="3" font-family="sans-serif">DESTINATION</text></g><g class="relationship" transform="translate(35.73733295231237 -500.83403635215865) rotate(380.43807540948154)"><path class="outline" fill="#A5ABB6" stroke="none" d="M 25 0.5 L 48.75099804328262 0.5 L 48.75099804328262 -0.5 L 25 -0.5 Z M 107.93849804328262 0.5 L 131.68949608656524 0.5 L 131.68949608656524 3.5 L 138.68949608656524 0 L 131.68949608656524 -3.5 L 131.68949608656524 -0.5 L 107.93849804328262 -0.5 Z"/><text text-anchor="middle" pointer-events="none" font-size="8px" fill="#000000" x="78.34474804328262" y="3" font-family="sans-serif">DESTINATION</text></g><g class="relationship" transform="translate(35.73733295231237 -500.83403635215865) rotate(534.5528500914313)"><path class="outline" fill="#A5ABB6" stroke="none" d="M 25 0.5 L 53.53958859313478 0.5 L 53.53958859313478 -0.5 L 25 -0.5 Z M 87.98490109313478 0.5 L 116.52448968626956 0.5 L 116.52448968626956 3.5 L 123.52448968626956 0 L 116.52448968626956 -3.5 L 116.52448968626956 -0.5 L 87.98490109313478 -0.5 Z"/><text text-anchor="middle" pointer-events="none" font-size="8px" fill="#000000" x="70.76224484313478" y="3" transform="rotate(180 70.76224484313478 0)" font-family="sans-serif">ORIGIN</text></g><g class="relationship" transform="translate(76.09819943560201 -544.7777099735202) rotate(401.81344197492973)"><path class="outline" fill="#A5ABB6" stroke="none" d="M 25 0.5 L 55.10011705396413 0.5 L 55.10011705396413 -0.5 L 25 -0.5 Z M 89.54542955396413 0.5 L 119.64554660792825 0.5 L 119.64554660792825 3.5 L 126.64554660792825 0 L 119.64554660792825 -3.5 L 119.64554660792825 -0.5 L 89.54542955396413 -0.5 Z"/><text text-anchor="middle" pointer-events="none" font-size="8px" fill="#000000" x="72.32277330396413" y="3" font-family="sans-serif">ORIGIN</text></g><g class="relationship" transform="translate(76.09819943560201 -544.7777099735202) rotate(522.8609761865849)"><path class="outline" fill="#A5ABB6" stroke="none" d="M 25 0.5 L 65.38684823747481 0.5 L 65.38684823747481 -0.5 L 25 -0.5 Z M 124.57434823747481 0.5 L 164.96119647494962 0.5 L 164.96119647494962 3.5 L 171.96119647494962 0 L 164.96119647494962 -3.5 L 164.96119647494962 -0.5 L 124.57434823747481 -0.5 Z"/><text text-anchor="middle" pointer-events="none" font-size="8px" fill="#000000" x="94.98059823747481" y="3" transform="rotate(180 94.98059823747481 0)" font-family="sans-serif">DESTINATION</text></g><g class="relationship" transform="translate(40.83525552689837 276.47913790220144) rotate(276.0217094942817)"><path class="outline" fill="#A5ABB6" stroke="none" d="M 25 0.5 L 48.31036666107485 0.5 L 48.31036666107485 -0.5 L 25 -0.5 Z M 82.75567916107485 0.5 L 106.0660458221497 0.5 L 106.0660458221497 3.5 L 113.0660458221497 0 L 106.0660458221497 -3.5 L 106.0660458221497 -0.5 L 82.75567916107485 -0.5 Z"/><text text-anchor="middle" pointer-events="none" font-size="8px" fill="#000000" x="65.53302291107485" y="3" font-family="sans-serif">ORIGIN</text></g><g class="relationship" transform="translate(40.83525552689837 276.47913790220144) rotate(219.5263387993823)"><path class="outline" fill="#A5ABB6" stroke="none" d="M 25 0.5 L 56.859726587701005 0.5 L 56.859726587701005 -0.5 L 25 -0.5 Z M 116.047226587701 0.5 L 147.906953175402 0.5 L 147.906953175402 3.5 L 154.906953175402 0 L 147.906953175402 -3.5 L 147.906953175402 -0.5 L 116.047226587701 -0.5 Z"/><text text-anchor="middle" pointer-events="none" font-size="8px" fill="#000000" x="86.453476587701" y="3" transform="rotate(180 86.453476587701 0)" font-family="sans-serif">DESTINATION</text></g><g class="relationship" transform="translate(-62.516648299269484 278.14181691535515) rotate(310.2959837967712)"><path class="outline" fill="#A5ABB6" stroke="none" d="M 25 0.5 L 70.37765624348923 0.5 L 70.37765624348923 -0.5 L 25 -0.5 Z M 104.82296874348923 0.5 L 150.20062498697845 0.5 L 150.20062498697845 3.5 L 157.20062498697845 0 L 150.20062498697845 -3.5 L 150.20062498697845 -0.5 L 104.82296874348923 -0.5 Z"/><text text-anchor="middle" pointer-events="none" font-size="8px" fill="#000000" x="87.60031249348923" y="3" font-family="sans-serif">ORIGIN</text></g><g class="relationship" transform="translate(-62.516648299269484 278.14181691535515) rotate(253.04421322467311)"><path class="outline" fill="#A5ABB6" stroke="none" d="M 25 0.5 L 27.626440117683856 0.5 L 27.626440117683856 -0.5 L 25 -0.5 Z M 86.81394011768386 0.5 L 89.44038023536771 0.5 L 89.44038023536771 3.5 L 96.44038023536771 0 L 89.44038023536771 -3.5 L 89.44038023536771 -0.5 L 86.81394011768386 -0.5 Z"/><text text-anchor="middle" pointer-events="none" font-size="8px" fill="#000000" x="57.220190117683856" y="3" transform="rotate(180 57.220190117683856 0)" font-family="sans-serif">DESTINATION</text></g><g class="relationship" transform="translate(-307.2040772095638 -399.53229244606115) rotate(476.70506901180784)"><path class="outline" fill="#A5ABB6" stroke="none" d="M 25 0.5 L 105.06846453938988 0.5 L 105.06846453938988 -0.5 L 25 -0.5 Z M 139.51377703938988 0.5 L 219.58224157877976 0.5 L 219.58224157877976 3.5 L 226.58224157877976 0 L 219.58224157877976 -3.5 L 219.58224157877976 -0.5 L 139.51377703938988 -0.5 Z"/><text text-anchor="middle" pointer-events="none" font-size="8px" fill="#000000" x="122.29112078938988" y="3" transform="rotate(180 122.29112078938988 0)" font-family="sans-serif">ORIGIN</text></g><g class="relationship" transform="translate(-307.2040772095638 -399.53229244606115) rotate(335.9157220514476)"><path class="outline" fill="#A5ABB6" stroke="none" d="M 25 0.5 L 73.75133684201361 0.5 L 73.75133684201361 -0.5 L 25 -0.5 Z M 132.93883684201361 0.5 L 181.69017368402723 0.5 L 181.69017368402723 3.5 L 188.69017368402723 0 L 181.69017368402723 -3.5 L 181.69017368402723 -0.5 L 132.93883684201361 -0.5 Z"/><text text-anchor="middle" pointer-events="none" font-size="8px" fill="#000000" x="103.34508684201361" y="3" font-family="sans-serif">DESTINATION</text></g><g class="relationship" transform="translate(18.259534392885897 -558.0445473835828) rotate(393.79703257802606)"><path class="outline" fill="#A5ABB6" stroke="none" d="M 25 0.5 L 69.71030160112895 0.5 L 69.71030160112895 -0.5 L 25 -0.5 Z M 128.89780160112895 0.5 L 173.6081032022579 0.5 L 173.6081032022579 3.5 L 180.6081032022579 0 L 173.6081032022579 -3.5 L 173.6081032022579 -0.5 L 128.89780160112895 -0.5 Z"/><text text-anchor="middle" pointer-events="none" font-size="8px" fill="#000000" x="99.30405160112895" y="3" font-family="sans-serif">DESTINATION</text></g><g class="relationship" transform="translate(18.259534392885897 -558.0445473835828) rotate(511.32339900615466)"><path class="outline" fill="#A5ABB6" stroke="none" d="M 25 0.5 L 53.5790133318213 0.5 L 53.5790133318213 -0.5 L 25 -0.5 Z M 88.0243258318213 0.5 L 116.6033391636426 0.5 L 116.6033391636426 3.5 L 123.6033391636426 0 L 116.6033391636426 -3.5 L 116.6033391636426 -0.5 L 88.0243258318213 -0.5 Z"/><text text-anchor="middle" pointer-events="none" font-size="8px" fill="#000000" x="70.8016695818213" y="3" transform="rotate(180 70.8016695818213 0)" font-family="sans-serif">ORIGIN</text></g><g class="relationship" transform="translate(-427.75583006841975 -92.51759745447153) rotate(275.2028902611673)"><path class="outline" fill="#A5ABB6" stroke="none" d="M 25 0.5 L 25.24770059608585 0.5 L 25.24770059608585 -0.5 L 25 -0.5 Z M 50.36098184608585 0.5 L 50.6086824421717 0.5 L 50.6086824421717 3.5 L 57.6086824421717 0 L 50.6086824421717 -3.5 L 50.6086824421717 -0.5 L 50.36098184608585 -0.5 Z"/><text text-anchor="middle" pointer-events="none" font-size="8px" fill="#000000" x="37.80434122108585" y="3" font-family="sans-serif">DE…</text></g><g class="relationship" transform="translate(-427.75583006841975 -92.51759745447153) rotate(356.6097631900127)"><path class="outline" fill="#A5ABB6" stroke="none" d="M 25 0.5 L 72.17382211738607 0.5 L 72.17382211738607 -0.5 L 25 -0.5 Z M 106.61913461738607 0.5 L 153.79295673477213 0.5 L 153.79295673477213 3.5 L 160.79295673477213 0 L 153.79295673477213 -3.5 L 153.79295673477213 -0.5 L 106.61913461738607 -0.5 Z"/><text text-anchor="middle" pointer-events="none" font-size="8px" fill="#000000" x="89.39647836738607" y="3" font-family="sans-serif">ORIGIN</text></g><g class="relationship" transform="translate(-377.9643126202109 -60.02921978282424) rotate(249.76566931497064)"><path class="outline" fill="#A5ABB6" stroke="none" d="M 25 0.5 L 28.058554915809182 0.5 L 28.058554915809182 -0.5 L 25 -0.5 Z M 87.24605491580918 0.5 L 90.30460983161836 0.5 L 90.30460983161836 3.5 L 97.30460983161836 0 L 90.30460983161836 -3.5 L 90.30460983161836 -0.5 L 87.24605491580918 -0.5 Z"/><text text-anchor="middle" pointer-events="none" font-size="8px" fill="#000000" x="57.65230491580918" y="3" transform="rotate(180 57.65230491580918 0)" font-family="sans-serif">DESTINATION</text></g><g class="relationship" transform="translate(-377.9643126202109 -60.02921978282424) rotate(342.2327036272834)"><path class="outline" fill="#A5ABB6" stroke="none" d="M 25 0.5 L 50.513170699812235 0.5 L 50.513170699812235 -0.5 L 25 -0.5 Z M 84.95848319981224 0.5 L 110.47165389962447 0.5 L 110.47165389962447 3.5 L 117.47165389962447 0 L 110.47165389962447 -3.5 L 110.47165389962447 -0.5 L 84.95848319981224 -0.5 Z"/><text text-anchor="middle" pointer-events="none" font-size="8px" fill="#000000" x="67.73582694981224" y="3" font-family="sans-serif">ORIGIN</text></g><g class="relationship" transform="translate(-431.1508321311718 -33.38784337125623) rotate(274.4024979980634)"><path class="outline" fill="#A5ABB6" stroke="none" d="M 25 0.5 L 50.18560236598816 0.5 L 50.18560236598816 -0.5 L 25 -0.5 Z M 84.63091486598816 0.5 L 109.81651723197632 0.5 L 109.81651723197632 3.5 L 116.81651723197632 0 L 109.81651723197632 -3.5 L 109.81651723197632 -0.5 L 84.63091486598816 -0.5 Z"/><text text-anchor="middle" pointer-events="none" font-size="8px" fill="#000000" x="67.40825861598816" y="3" font-family="sans-serif">ORIGIN</text></g><g class="relationship" transform="translate(-431.1508321311718 -33.38784337125623) rotate(339.6321456296298)"><path class="outline" fill="#A5ABB6" stroke="none" d="M 25 0.5 L 67.63550739146633 0.5 L 67.63550739146633 -0.5 L 25 -0.5 Z M 126.82300739146633 0.5 L 169.45851478293267 0.5 L 169.45851478293267 3.5 L 176.45851478293267 0 L 169.45851478293267 -3.5 L 169.45851478293267 -0.5 L 126.82300739146633 -0.5 Z"/><text text-anchor="middle" pointer-events="none" font-size="8px" fill="#000000" x="97.22925739146633" y="3" font-family="sans-serif">DESTINATION</text></g><g class="relationship" transform="translate(-91.12681910455208 -167.19617012191512) rotate(451.18445742673623)"><path class="outline" fill="#A5ABB6" stroke="none" d="M 25 0.5 L 131.52973040156644 0.5 L 131.52973040156644 -0.5 L 25 -0.5 Z M 190.71723040156644 0.5 L 297.2469608031329 0.5 L 297.2469608031329 3.5 L 304.2469608031329 0 L 297.2469608031329 -3.5 L 297.2469608031329 -0.5 L 190.71723040156644 -0.5 Z"/><text text-anchor="middle" pointer-events="none" font-size="8px" fill="#000000" x="161.12348040156644" y="3" transform="rotate(180 161.12348040156644 0)" font-family="sans-serif">DESTINATION</text></g><g class="relationship" transform="translate(-91.12681910455208 -167.19617012191512) rotate(266.2417963338629)"><path class="outline" fill="#A5ABB6" stroke="none" d="M 25 0.5 L 139.39106065691962 0.5 L 139.39106065691962 -0.5 L 25 -0.5 Z M 173.83637315691962 0.5 L 288.22743381383924 0.5 L 288.22743381383924 3.5 L 295.22743381383924 0 L 288.22743381383924 -3.5 L 288.22743381383924 -0.5 L 173.83637315691962 -0.5 Z"/><text text-anchor="middle" pointer-events="none" font-size="8px" fill="#000000" x="156.61371690691962" y="3" transform="rotate(180 156.61371690691962 0)" font-family="sans-serif">ORIGIN</text></g><g class="relationship" transform="translate(151.17602904766326 84.6279508370322) rotate(510.35814864691463)"><path class="outline" fill="#A5ABB6" stroke="none" d="M 25 0.5 L 34.42242319785794 0.5 L 34.42242319785794 -0.5 L 25 -0.5 Z M 68.86773569785794 0.5 L 78.29015889571588 0.5 L 78.29015889571588 3.5 L 85.29015889571588 0 L 78.29015889571588 -3.5 L 78.29015889571588 -0.5 L 68.86773569785794 -0.5 Z"/><text text-anchor="middle" pointer-events="none" font-size="8px" fill="#000000" x="51.64507944785794" y="3" transform="rotate(180 51.64507944785794 0)" font-family="sans-serif">ORIGIN</text></g><g class="relationship" transform="translate(151.17602904766326 84.6279508370322) rotate(235.6502804769964)"><path class="outline" fill="#A5ABB6" stroke="none" d="M 25 0.5 L 65.6514358888227 0.5 L 65.6514358888227 -0.5 L 25 -0.5 Z M 124.8389358888227 0.5 L 165.4903717776454 0.5 L 165.4903717776454 3.5 L 172.4903717776454 0 L 165.4903717776454 -3.5 L 165.4903717776454 -0.5 L 124.8389358888227 -0.5 Z"/><text text-anchor="middle" pointer-events="none" font-size="8px" fill="#000000" x="95.2451858888227" y="3" transform="rotate(180 95.2451858888227 0)" font-family="sans-serif">DESTINATION</text></g><g class="relationship" transform="translate(-54.32042150542977 -305.1494766548732) rotate(427.46758769786396)"><path class="outline" fill="#A5ABB6" stroke="none" d="M 25 0.5 L 89.6391238986581 0.5 L 89.6391238986581 -0.5 L 25 -0.5 Z M 148.8266238986581 0.5 L 213.4657477973162 0.5 L 213.4657477973162 3.5 L 220.4657477973162 0 L 213.4657477973162 -3.5 L 213.4657477973162 -0.5 L 148.8266238986581 -0.5 Z"/><text text-anchor="middle" pointer-events="none" font-size="8px" fill="#000000" x="119.2328738986581" y="3" font-family="sans-serif">DESTINATION</text></g><g class="relationship" transform="translate(-54.32042150542977 -305.1494766548732) rotate(252.3444826077935)"><path class="outline" fill="#A5ABB6" stroke="none" d="M 25 0.5 L 74.5580765141698 0.5 L 74.5580765141698 -0.5 L 25 -0.5 Z M 109.0033890141698 0.5 L 158.5614655283396 0.5 L 158.5614655283396 3.5 L 165.5614655283396 0 L 158.5614655283396 -3.5 L 158.5614655283396 -0.5 L 109.0033890141698 -0.5 Z"/><text text-anchor="middle" pointer-events="none" font-size="8px" fill="#000000" x="91.7807327641698" y="3" transform="rotate(180 91.7807327641698 0)" font-family="sans-serif">ORIGIN</text></g><g class="relationship" transform="translate(2.9516619559271757 -320.8453273709276) rotate(441.3702495345541)"><path class="outline" fill="#A5ABB6" stroke="none" d="M 25 0.5 L 89.5059778596418 0.5 L 89.5059778596418 -0.5 L 25 -0.5 Z M 148.6934778596418 0.5 L 213.1994557192836 0.5 L 213.1994557192836 3.5 L 220.1994557192836 0 L 213.1994557192836 -3.5 L 213.1994557192836 -0.5 L 148.6934778596418 -0.5 Z"/><text text-anchor="middle" pointer-events="none" font-size="8px" fill="#000000" x="119.0997278596418" y="3" font-family="sans-serif">DESTINATION</text></g><g class="relationship" transform="translate(2.9516619559271757 -320.8453273709276) rotate(235.25317843033076)"><path class="outline" fill="#A5ABB6" stroke="none" d="M 25 0.5 L 80.22292742797158 0.5 L 80.22292742797158 -0.5 L 25 -0.5 Z M 114.66823992797158 0.5 L 169.89116735594317 0.5 L 169.89116735594317 3.5 L 176.89116735594317 0 L 169.89116735594317 -3.5 L 169.89116735594317 -0.5 L 114.66823992797158 -0.5 Z"/><text text-anchor="middle" pointer-events="none" font-size="8px" fill="#000000" x="97.44558367797158" y="3" transform="rotate(180 97.44558367797158 0)" font-family="sans-serif">ORIGIN</text></g><g class="relationship" transform="translate(-381.70170787849213 -0.31613200548812403) rotate(257.5363418276394)"><path class="outline" fill="#A5ABB6" stroke="none" d="M 25 0.5 L 56.24661883196619 0.5 L 56.24661883196619 -0.5 L 25 -0.5 Z M 115.43411883196619 0.5 L 146.68073766393238 0.5 L 146.68073766393238 3.5 L 153.68073766393238 0 L 146.68073766393238 -3.5 L 146.68073766393238 -0.5 L 115.43411883196619 -0.5 Z"/><text text-anchor="middle" pointer-events="none" font-size="8px" fill="#000000" x="85.84036883196619" y="3" transform="rotate(180 85.84036883196619 0)" font-family="sans-serif">DESTINATION</text></g><g class="relationship" transform="translate(-381.70170787849213 -0.31613200548812403) rotate(323.4925992061303)"><path class="outline" fill="#A5ABB6" stroke="none" d="M 25 0.5 L 66.00112270547308 0.5 L 66.00112270547308 -0.5 L 25 -0.5 Z M 100.44643520547308 0.5 L 141.44755791094616 0.5 L 141.44755791094616 3.5 L 148.44755791094616 0 L 141.44755791094616 -3.5 L 141.44755791094616 -0.5 L 100.44643520547308 -0.5 Z"/><text text-anchor="middle" pointer-events="none" font-size="8px" fill="#000000" x="83.22377895547308" y="3" font-family="sans-serif">ORIGIN</text></g><g class="relationship" transform="translate(-353.52158918799944 -114.63067128606852) rotate(222.02821104722796)"><path class="outline" fill="#A5ABB6" stroke="none" d="M 25 0.5 L 27.31441275514092 0.5 L 27.31441275514092 -0.5 L 25 -0.5 Z M 55.53706900514092 0.5 L 57.85148176028184 0.5 L 57.85148176028184 3.5 L 64.85148176028184 0 L 57.85148176028184 -3.5 L 57.85148176028184 -0.5 L 55.53706900514092 -0.5 Z"/><text text-anchor="middle" pointer-events="none" font-size="8px" fill="#000000" x="41.42574088014092" y="3" transform="rotate(180 41.42574088014092 0)" font-family="sans-serif">ORI…</text></g><g class="relationship" transform="translate(-353.52158918799944 -114.63067128606852) rotate(365.7119265318722)"><path class="outline" fill="#A5ABB6" stroke="none" d="M 25 0.5 L 25.911881957099318 0.5 L 25.911881957099318 -0.5 L 25 -0.5 Z M 78.87672570709933 0.5 L 79.78860766419864 0.5 L 79.78860766419864 3.5 L 86.78860766419864 0 L 79.78860766419864 -3.5 L 79.78860766419864 -0.5 L 78.87672570709933 -0.5 Z"/><text text-anchor="middle" pointer-events="none" font-size="8px" fill="#000000" x="52.39430383209932" y="3" font-family="sans-serif">DESTINAT…</text></g><g class="relationship" transform="translate(-228.82666348276408 101.91250907451152) rotate(384.6506486381638)"><path class="outline" fill="#A5ABB6" stroke="none" d="M 25 0.5 L 51.28667014557064 0.5 L 51.28667014557064 -0.5 L 25 -0.5 Z M 85.73198264557064 0.5 L 112.01865279114128 0.5 L 112.01865279114128 3.5 L 119.01865279114128 0 L 112.01865279114128 -3.5 L 112.01865279114128 -0.5 L 85.73198264557064 -0.5 Z"/><text text-anchor="middle" pointer-events="none" font-size="8px" fill="#000000" x="68.50932639557064" y="3" font-family="sans-serif">ORIGIN</text></g><g class="relationship" transform="translate(-228.82666348276408 101.91250907451152) rotate(266.2506645272702)"><path class="outline" fill="#A5ABB6" stroke="none" d="M 25 0.5 L 69.83515537161897 0.5 L 69.83515537161897 -0.5 L 25 -0.5 Z M 129.02265537161895 0.5 L 173.85781074323793 0.5 L 173.85781074323793 3.5 L 180.85781074323793 0 L 173.85781074323793 -3.5 L 173.85781074323793 -0.5 L 129.02265537161895 -0.5 Z"/><text text-anchor="middle" pointer-events="none" font-size="8px" fill="#000000" x="99.42890537161897" y="3" transform="rotate(180 99.42890537161897 0)" font-family="sans-serif">DESTINATION</text></g><g class="relationship" transform="translate(-328.64851714766905 -26.712976620571794) rotate(238.25397089080343)"><path class="outline" fill="#A5ABB6" stroke="none" d="M 25 0.5 L 53.96816793754418 0.5 L 53.96816793754418 -0.5 L 25 -0.5 Z M 113.15566793754418 0.5 L 142.12383587508836 0.5 L 142.12383587508836 3.5 L 149.12383587508836 0 L 142.12383587508836 -3.5 L 142.12383587508836 -0.5 L 113.15566793754418 -0.5 Z"/><text text-anchor="middle" pointer-events="none" font-size="8px" fill="#000000" x="83.56191793754418" y="3" transform="rotate(180 83.56191793754418 0)" font-family="sans-serif">DESTINATION</text></g><g class="relationship" transform="translate(-328.64851714766905 -26.712976620571794) rotate(318.35651381586877)"><path class="outline" fill="#A5ABB6" stroke="none" d="M 25 0.5 L 37.05948475194732 0.5 L 37.05948475194732 -0.5 L 25 -0.5 Z M 71.50479725194732 0.5 L 83.56428200389465 0.5 L 83.56428200389465 3.5 L 90.56428200389465 0 L 83.56428200389465 -3.5 L 83.56428200389465 -0.5 L 71.50479725194732 -0.5 Z"/><text text-anchor="middle" pointer-events="none" font-size="8px" fill="#000000" x="54.28214100194732" y="3" font-family="sans-serif">ORIGIN</text></g><g class="relationship" transform="translate(-116.05660281503256 -16.50011080262699) rotate(338.32497094474184)"><path class="outline" fill="#A5ABB6" stroke="none" d="M 25 0.5 L 63.10452529682745 0.5 L 63.10452529682745 -0.5 L 25 -0.5 Z M 97.54983779682745 0.5 L 135.6543630936549 0.5 L 135.6543630936549 3.5 L 142.6543630936549 0 L 135.6543630936549 -3.5 L 135.6543630936549 -0.5 L 97.54983779682745 -0.5 Z"/><text text-anchor="middle" pointer-events="none" font-size="8px" fill="#000000" x="80.32718154682745" y="3" font-family="sans-serif">ORIGIN</text></g><g class="relationship" transform="translate(-116.05660281503256 -16.50011080262699) rotate(214.5764247353443)"><path class="outline" fill="#A5ABB6" stroke="none" d="M 25 0.5 L 43.56160013987501 0.5 L 43.56160013987501 -0.5 L 25 -0.5 Z M 102.74910013987501 0.5 L 121.31070027975002 0.5 L 121.31070027975002 3.5 L 128.31070027975002 0 L 121.31070027975002 -3.5 L 121.31070027975002 -0.5 L 102.74910013987501 -0.5 Z"/><text text-anchor="middle" pointer-events="none" font-size="8px" fill="#000000" x="73.15535013987501" y="3" transform="rotate(180 73.15535013987501 0)" font-family="sans-serif">DESTINATION</text></g></g><g class="layer nodes"><g class="node" transform="translate(604.9448965096188,-9.03676121841127)"><circle class="outline" cx="0" cy="0" r="25" fill="#ECB5C9" stroke="#da7298" stroke-width="2px"/><text text-anchor="middle" pointer-events="none" font-family="sans-serif" dy="1.5625" font-size="25" fill="#2A2C34"/><text text-anchor="middle" pointer-events="none" x="0" y="5" font-size="10px" fill="#2A2C34" font-family="sans-serif"> DAY</text></g><g class="node" transform="translate(55.31911303214797,139.1749104336651)"><circle class="outline" cx="0" cy="0" r="25" fill="#ECB5C9" stroke="#da7298" stroke-width="2px"/><text text-anchor="middle" pointer-events="none" font-family="sans-serif" dy="1.5625" font-size="25" fill="#2A2C34"/><text text-anchor="middle" pointer-events="none" x="0" y="5" font-size="10px" fill="#2A2C34" font-family="sans-serif"> LAX</text></g><g class="node" transform="translate(191.520444730875,164.3094565081271)"><circle class="outline" cx="0" cy="0" r="25" fill="#4C8EDA" stroke="#2870c2" stroke-width="2px"/><text text-anchor="middle" pointer-events="none" font-family="sans-serif" dy="1.5625" font-size="25" fill="#FFFFFF"/><text text-anchor="middle" pointer-events="none" x="0" y="5" font-size="10px" fill="#FFFFFF" font-family="sans-serif"> 11/30/20…</text></g><g class="node" transform="translate(84.56783839001021,50.195442258756366)"><circle class="outline" cx="0" cy="0" r="25" fill="#ECB5C9" stroke="#da7298" stroke-width="2px"/><text text-anchor="middle" pointer-events="none" font-family="sans-serif" dy="1.5625" font-size="25" fill="#2A2C34"/><text text-anchor="middle" pointer-events="none" x="0" y="5" font-size="10px" fill="#2A2C34" font-family="sans-serif"> EWR</text></g><g class="node" transform="translate(-96.95564456836206,45.56287456218896)"><circle class="outline" cx="0" cy="0" r="25" fill="#4C8EDA" stroke="#2870c2" stroke-width="2px"/><text text-anchor="middle" pointer-events="none" font-family="sans-serif" dy="1.5625" font-size="25" fill="#FFFFFF"/><text text-anchor="middle" pointer-events="none" x="0" y="5" font-size="10px" fill="#FFFFFF" font-family="sans-serif"> 11/30/20…</text></g><g class="node" transform="translate(-242.2880260151581,-103.50470043523286)"><circle class="outline" cx="0" cy="0" r="25" fill="#ECB5C9" stroke="#da7298" stroke-width="2px"/><text text-anchor="middle" pointer-events="none" font-family="sans-serif" dy="1.5625" font-size="25" fill="#2A2C34"/><text text-anchor="middle" pointer-events="none" x="0" y="5" font-size="10px" fill="#2A2C34" font-family="sans-serif"> DEN</text></g><g class="node" transform="translate(97.03437834839467,-130.73604489130574)"><circle class="outline" cx="0" cy="0" r="25" fill="#4C8EDA" stroke="#2870c2" stroke-width="2px"/><text text-anchor="middle" pointer-events="none" font-family="sans-serif" dy="1.5625" font-size="25" fill="#FFFFFF"/><text text-anchor="middle" pointer-events="none" x="0" y="5" font-size="10px" fill="#FFFFFF" font-family="sans-serif"> 11/29/20…</text></g><g class="node" transform="translate(378.75818835335474,-221.39417239603182)"><circle class="outline" cx="0" cy="0" r="25" fill="#ECB5C9" stroke="#da7298" stroke-width="2px"/><text text-anchor="middle" pointer-events="none" font-family="sans-serif" dy="1.5625" font-size="25" fill="#2A2C34"/><text text-anchor="middle" pointer-events="none" x="0" y="5" font-size="10px" fill="#2A2C34" font-family="sans-serif"> MSP</text></g><g class="node" transform="translate(480.5536604557816,-37.21811537967745)"><circle class="outline" cx="0" cy="0" r="25" fill="#4C8EDA" stroke="#2870c2" stroke-width="2px"/><text text-anchor="middle" pointer-events="none" font-family="sans-serif" dy="1.5625" font-size="25" fill="#FFFFFF"/><text text-anchor="middle" pointer-events="none" x="0" y="5" font-size="10px" fill="#FFFFFF" font-family="sans-serif"> 11/25/20…</text></g><g class="node" transform="translate(479.6115067538378,-96.58454543709033)"><circle class="outline" cx="0" cy="0" r="25" fill="#4C8EDA" stroke="#2870c2" stroke-width="2px"/><text text-anchor="middle" pointer-events="none" font-family="sans-serif" dy="1.5625" font-size="25" fill="#FFFFFF"/><text text-anchor="middle" pointer-events="none" x="0" y="5" font-size="10px" fill="#FFFFFF" font-family="sans-serif"> 11/20/20…</text></g><g class="node" transform="translate(511.3524937846649,-147.62913954750397)"><circle class="outline" cx="0" cy="0" r="25" fill="#4C8EDA" stroke="#2870c2" stroke-width="2px"/><text text-anchor="middle" pointer-events="none" font-family="sans-serif" dy="1.5625" font-size="25" fill="#FFFFFF"/><text text-anchor="middle" pointer-events="none" x="0" y="5" font-size="10px" fill="#FFFFFF" font-family="sans-serif"> 11/23/20…</text></g><g class="node" transform="translate(539.192236560028,-95.1884359413899)"><circle class="outline" cx="0" cy="0" r="25" fill="#4C8EDA" stroke="#2870c2" stroke-width="2px"/><text text-anchor="middle" pointer-events="none" font-family="sans-serif" dy="1.5625" font-size="25" fill="#FFFFFF"/><text text-anchor="middle" pointer-events="none" x="0" y="5" font-size="10px" fill="#FFFFFF" font-family="sans-serif"> 11/11/20…</text></g><g class="node" transform="translate(570.7667095017093,-149.26526390691322)"><circle class="outline" cx="0" cy="0" r="25" fill="#4C8EDA" stroke="#2870c2" stroke-width="2px"/><text text-anchor="middle" pointer-events="none" font-family="sans-serif" dy="1.5625" font-size="25" fill="#FFFFFF"/><text text-anchor="middle" pointer-events="none" x="0" y="5" font-size="10px" fill="#FFFFFF" font-family="sans-serif"> 11/16/20…</text></g><g class="node" transform="translate(113.4476107976161,233.59684720880617)"><circle class="outline" cx="0" cy="0" r="25" fill="#4C8EDA" stroke="#2870c2" stroke-width="2px"/><text text-anchor="middle" pointer-events="none" font-family="sans-serif" dy="1.5625" font-size="25" fill="#FFFFFF"/><text text-anchor="middle" pointer-events="none" x="0" y="5" font-size="10px" fill="#FFFFFF" font-family="sans-serif"> 11/29/20…</text></g><g class="node" transform="translate(171.49398431328137,220.38300312262666)"><circle class="outline" cx="0" cy="0" r="25" fill="#4C8EDA" stroke="#2870c2" stroke-width="2px"/><text text-anchor="middle" pointer-events="none" font-family="sans-serif" dy="1.5625" font-size="25" fill="#FFFFFF"/><text text-anchor="middle" pointer-events="none" x="0" y="5" font-size="10px" fill="#FFFFFF" font-family="sans-serif"> 11/29/20…</text></g><g class="node" transform="translate(-20.897286808049323,-229.7021871251872)"><circle class="outline" cx="0" cy="0" r="25" fill="#4C8EDA" stroke="#2870c2" stroke-width="2px"/><text text-anchor="middle" pointer-events="none" font-family="sans-serif" dy="1.5625" font-size="25" fill="#FFFFFF"/><text text-anchor="middle" pointer-events="none" x="0" y="5" font-size="10px" fill="#FFFFFF" font-family="sans-serif"> 11/30/20…</text></g><g class="node" transform="translate(-112.11644743642259,-486.73497037860807)"><circle class="outline" cx="0" cy="0" r="25" fill="#ECB5C9" stroke="#da7298" stroke-width="2px"/><text text-anchor="middle" pointer-events="none" font-family="sans-serif" dy="1.5625" font-size="25" fill="#2A2C34"/><text text-anchor="middle" pointer-events="none" x="0" y="5" font-size="10px" fill="#2A2C34" font-family="sans-serif"> ORD</text></g><g class="node" transform="translate(138.96164476211433,-386.3074813964679)"><circle class="outline" cx="0" cy="0" r="25" fill="#4C8EDA" stroke="#2870c2" stroke-width="2px"/><text text-anchor="middle" pointer-events="none" font-family="sans-serif" dy="1.5625" font-size="25" fill="#FFFFFF"/><text text-anchor="middle" pointer-events="none" x="0" y="5" font-size="10px" fill="#FFFFFF" font-family="sans-serif"> 11/29/20…</text></g><g class="node" transform="translate(37.181817072637834,-242.41325323541807)"><circle class="outline" cx="0" cy="0" r="25" fill="#4C8EDA" stroke="#2870c2" stroke-width="2px"/><text text-anchor="middle" pointer-events="none" font-family="sans-serif" dy="1.5625" font-size="25" fill="#FFFFFF"/><text text-anchor="middle" pointer-events="none" x="0" y="5" font-size="10px" fill="#FFFFFF" font-family="sans-serif"> 11/30/20…</text></g><g class="node" transform="translate(197.5690532937104,-379.0157887132725)"><circle class="outline" cx="0" cy="0" r="25" fill="#4C8EDA" stroke="#2870c2" stroke-width="2px"/><text text-anchor="middle" pointer-events="none" font-family="sans-serif" dy="1.5625" font-size="25" fill="#FFFFFF"/><text text-anchor="middle" pointer-events="none" x="0" y="5" font-size="10px" fill="#FFFFFF" font-family="sans-serif"> 11/30/20…</text></g><g class="node" transform="translate(161.5757888287546,-331.8623999439073)"><circle class="outline" cx="0" cy="0" r="25" fill="#4C8EDA" stroke="#2870c2" stroke-width="2px"/><text text-anchor="middle" pointer-events="none" font-family="sans-serif" dy="1.5625" font-size="25" fill="#FFFFFF"/><text text-anchor="middle" pointer-events="none" x="0" y="5" font-size="10px" fill="#FFFFFF" font-family="sans-serif"> 11/29/20…</text></g><g class="node" transform="translate(17.08458906340981,-171.08791948388367)"><circle class="outline" cx="0" cy="0" r="25" fill="#4C8EDA" stroke="#2870c2" stroke-width="2px"/><text text-anchor="middle" pointer-events="none" font-family="sans-serif" dy="1.5625" font-size="25" fill="#FFFFFF"/><text text-anchor="middle" pointer-events="none" x="0" y="5" font-size="10px" fill="#FFFFFF" font-family="sans-serif"> 11/30/20…</text></g><g class="node" transform="translate(-137.5657878954694,-318.9693608532144)"><circle class="outline" cx="0" cy="0" r="25" fill="#4C8EDA" stroke="#2870c2" stroke-width="2px"/><text text-anchor="middle" pointer-events="none" font-family="sans-serif" dy="1.5625" font-size="25" fill="#FFFFFF"/><text text-anchor="middle" pointer-events="none" x="0" y="5" font-size="10px" fill="#FFFFFF" font-family="sans-serif"> 11/30/20…</text></g><g class="node" transform="translate(-196.29549006153636,-314.12884543775067)"><circle class="outline" cx="0" cy="0" r="25" fill="#4C8EDA" stroke="#2870c2" stroke-width="2px"/><text text-anchor="middle" pointer-events="none" font-family="sans-serif" dy="1.5625" font-size="25" fill="#FFFFFF"/><text text-anchor="middle" pointer-events="none" x="0" y="5" font-size="10px" fill="#FFFFFF" font-family="sans-serif"> 11/29/20…</text></g><g class="node" transform="translate(-256.1305875037677,-307.7698920790665)"><circle class="outline" cx="0" cy="0" r="25" fill="#4C8EDA" stroke="#2870c2" stroke-width="2px"/><text text-anchor="middle" pointer-events="none" font-family="sans-serif" dy="1.5625" font-size="25" fill="#FFFFFF"/><text text-anchor="middle" pointer-events="none" x="0" y="5" font-size="10px" fill="#FFFFFF" font-family="sans-serif"> 11/29/20…</text></g><g class="node" transform="translate(-231.34844953379158,-361.56504067143663)"><circle class="outline" cx="0" cy="0" r="25" fill="#4C8EDA" stroke="#2870c2" stroke-width="2px"/><text text-anchor="middle" pointer-events="none" font-family="sans-serif" dy="1.5625" font-size="25" fill="#FFFFFF"/><text text-anchor="middle" pointer-events="none" x="0" y="5" font-size="10px" fill="#FFFFFF" font-family="sans-serif"> 11/29/20…</text></g><g class="node" transform="translate(-35.5103443085074,-144.2368616145032)"><circle class="outline" cx="0" cy="0" r="25" fill="#4C8EDA" stroke="#2870c2" stroke-width="2px"/><text text-anchor="middle" pointer-events="none" font-family="sans-serif" dy="1.5625" font-size="25" fill="#FFFFFF"/><text text-anchor="middle" pointer-events="none" x="0" y="5" font-size="10px" fill="#FFFFFF" font-family="sans-serif"> 11/29/20…</text></g><g class="node" transform="translate(-221.3836584410567,-260.2146399875348)"><circle class="outline" cx="0" cy="0" r="25" fill="#4C8EDA" stroke="#2870c2" stroke-width="2px"/><text text-anchor="middle" pointer-events="none" font-family="sans-serif" dy="1.5625" font-size="25" fill="#FFFFFF"/><text text-anchor="middle" pointer-events="none" x="0" y="5" font-size="10px" fill="#FFFFFF" font-family="sans-serif"> 11/29/20…</text></g><g class="node" transform="translate(-162.15765485062084,-265.41792232782)"><circle class="outline" cx="0" cy="0" r="25" fill="#4C8EDA" stroke="#2870c2" stroke-width="2px"/><text text-anchor="middle" pointer-events="none" font-family="sans-serif" dy="1.5625" font-size="25" fill="#FFFFFF"/><text text-anchor="middle" pointer-events="none" x="0" y="5" font-size="10px" fill="#FFFFFF" font-family="sans-serif"> 11/29/20…</text></g><g class="node" transform="translate(200.74048316425765,15.563949317068593)"><circle class="outline" cx="0" cy="0" r="25" fill="#4C8EDA" stroke="#2870c2" stroke-width="2px"/><text text-anchor="middle" pointer-events="none" font-family="sans-serif" dy="1.5625" font-size="25" fill="#FFFFFF"/><text text-anchor="middle" pointer-events="none" x="0" y="5" font-size="10px" fill="#FFFFFF" font-family="sans-serif"> 11/29/20…</text></g><g class="node" transform="translate(199.90469007571954,-233.28622958375004)"><circle class="outline" cx="0" cy="0" r="25" fill="#ECB5C9" stroke="#da7298" stroke-width="2px"/><text text-anchor="middle" pointer-events="none" font-family="sans-serif" dy="1.5625" font-size="25" fill="#2A2C34"/><text text-anchor="middle" pointer-events="none" x="0" y="5" font-size="10px" fill="#2A2C34" font-family="sans-serif"> BOS</text></g><g class="node" transform="translate(72.94133214283906,-429.5481833765942)"><circle class="outline" cx="0" cy="0" r="25" fill="#4C8EDA" stroke="#2870c2" stroke-width="2px"/><text text-anchor="middle" pointer-events="none" font-family="sans-serif" dy="1.5625" font-size="25" fill="#FFFFFF"/><text text-anchor="middle" pointer-events="none" x="0" y="5" font-size="10px" fill="#FFFFFF" font-family="sans-serif"> 11/30/20…</text></g><g class="node" transform="translate(33.80590534094494,-384.9928197206767)"><circle class="outline" cx="0" cy="0" r="25" fill="#4C8EDA" stroke="#2870c2" stroke-width="2px"/><text text-anchor="middle" pointer-events="none" font-family="sans-serif" dy="1.5625" font-size="25" fill="#FFFFFF"/><text text-anchor="middle" pointer-events="none" x="0" y="5" font-size="10px" fill="#FFFFFF" font-family="sans-serif"> 11/29/20…</text></g><g class="node" transform="translate(-200.81863970837557,35.24867674974025)"><circle class="outline" cx="0" cy="0" r="25" fill="#4C8EDA" stroke="#2870c2" stroke-width="2px"/><text text-anchor="middle" pointer-events="none" font-family="sans-serif" dy="1.5625" font-size="25" fill="#FFFFFF"/><text text-anchor="middle" pointer-events="none" x="0" y="5" font-size="10px" fill="#FFFFFF" font-family="sans-serif"> 11/29/20…</text></g><g class="node" transform="translate(-420.2646420320805,-174.78591770373743)"><circle class="outline" cx="0" cy="0" r="25" fill="#ECB5C9" stroke="#da7298" stroke-width="2px"/><text text-anchor="middle" pointer-events="none" font-family="sans-serif" dy="1.5625" font-size="25" fill="#2A2C34"/><text text-anchor="middle" pointer-events="none" x="0" y="5" font-size="10px" fill="#2A2C34" font-family="sans-serif"> SFO</text></g><g class="node" transform="translate(-314.64449702789364,-341.0734749633062)"><circle class="outline" cx="0" cy="0" r="25" fill="#4C8EDA" stroke="#2870c2" stroke-width="2px"/><text text-anchor="middle" pointer-events="none" font-family="sans-serif" dy="1.5625" font-size="25" fill="#FFFFFF"/><text text-anchor="middle" pointer-events="none" x="0" y="5" font-size="10px" fill="#FFFFFF" font-family="sans-serif"> 11/30/20…</text></g><g class="node" transform="translate(-10.313528683855552,307.11840286017673)"><circle class="outline" cx="0" cy="0" r="25" fill="#4C8EDA" stroke="#2870c2" stroke-width="2px"/><text text-anchor="middle" pointer-events="none" font-family="sans-serif" dy="1.5625" font-size="25" fill="#FFFFFF"/><text text-anchor="middle" pointer-events="none" x="0" y="5" font-size="10px" fill="#FFFFFF" font-family="sans-serif"> 11/4/2015</text></g><g class="node" transform="translate(-97.93275201916873,161.98043973252373)"><circle class="outline" cx="0" cy="0" r="25" fill="#ECB5C9" stroke="#da7298" stroke-width="2px"/><text text-anchor="middle" pointer-events="none" font-family="sans-serif" dy="1.5625" font-size="25" fill="#2A2C34"/><text text-anchor="middle" pointer-events="none" x="0" y="5" font-size="10px" fill="#2A2C34" font-family="sans-serif"> SMF</text></g><g class="node" transform="translate(-147.71687307944478,-151.25106810392958)"><circle class="outline" cx="0" cy="0" r="25" fill="#4C8EDA" stroke="#2870c2" stroke-width="2px"/><text text-anchor="middle" pointer-events="none" font-family="sans-serif" dy="1.5625" font-size="25" fill="#FFFFFF"/><text text-anchor="middle" pointer-events="none" x="0" y="5" font-size="10px" fill="#FFFFFF" font-family="sans-serif"> 11/30/20…</text></g><g class="node" transform="translate(-11.286677700827402,247.54936163718125)"><circle class="outline" cx="0" cy="0" r="25" fill="#4C8EDA" stroke="#2870c2" stroke-width="2px"/><text text-anchor="middle" pointer-events="none" font-family="sans-serif" dy="1.5625" font-size="25" fill="#FFFFFF"/><text text-anchor="middle" pointer-events="none" x="0" y="5" font-size="10px" fill="#FFFFFF" font-family="sans-serif"> 11/2/2015</text></g><g class="node" transform="translate(180.15332415539396,-98.46080561114512)"><circle class="outline" cx="0" cy="0" r="25" fill="#4C8EDA" stroke="#2870c2" stroke-width="2px"/><text text-anchor="middle" pointer-events="none" font-family="sans-serif" dy="1.5625" font-size="25" fill="#FFFFFF"/><text text-anchor="middle" pointer-events="none" x="0" y="5" font-size="10px" fill="#FFFFFF" font-family="sans-serif"> 11/30/20…</text></g><g class="node" transform="translate(189.1225985111202,-443.6745101248738)"><circle class="outline" cx="0" cy="0" r="25" fill="#ECB5C9" stroke="#da7298" stroke-width="2px"/><text text-anchor="middle" pointer-events="none" font-family="sans-serif" dy="1.5625" font-size="25" fill="#2A2C34"/><text text-anchor="middle" pointer-events="none" x="0" y="5" font-size="10px" fill="#2A2C34" font-family="sans-serif"> IAH</text></g><g class="node" transform="translate(35.73733295231237,-500.83403635215865)"><circle class="outline" cx="0" cy="0" r="25" fill="#4C8EDA" stroke="#2870c2" stroke-width="2px"/><text text-anchor="middle" pointer-events="none" font-family="sans-serif" dy="1.5625" font-size="25" fill="#FFFFFF"/><text text-anchor="middle" pointer-events="none" x="0" y="5" font-size="10px" fill="#FFFFFF" font-family="sans-serif"> 11/30/20…</text></g><g class="node" transform="translate(76.09819943560201,-544.7777099735202)"><circle class="outline" cx="0" cy="0" r="25" fill="#4C8EDA" stroke="#2870c2" stroke-width="2px"/><text text-anchor="middle" pointer-events="none" font-family="sans-serif" dy="1.5625" font-size="25" fill="#FFFFFF"/><text text-anchor="middle" pointer-events="none" x="0" y="5" font-size="10px" fill="#FFFFFF" font-family="sans-serif"> 11/29/20…</text></g><g class="node" transform="translate(40.83525552689837,276.47913790220144)"><circle class="outline" cx="0" cy="0" r="25" fill="#4C8EDA" stroke="#2870c2" stroke-width="2px"/><text text-anchor="middle" pointer-events="none" font-family="sans-serif" dy="1.5625" font-size="25" fill="#FFFFFF"/><text text-anchor="middle" pointer-events="none" x="0" y="5" font-size="10px" fill="#FFFFFF" font-family="sans-serif"> 11/1/2015</text></g><g class="node" transform="translate(-62.516648299269484,278.14181691535515)"><circle class="outline" cx="0" cy="0" r="25" fill="#4C8EDA" stroke="#2870c2" stroke-width="2px"/><text text-anchor="middle" pointer-events="none" font-family="sans-serif" dy="1.5625" font-size="25" fill="#FFFFFF"/><text text-anchor="middle" pointer-events="none" x="0" y="5" font-size="10px" fill="#FFFFFF" font-family="sans-serif"> 11/3/2015</text></g><g class="node" transform="translate(-307.2040772095638,-399.53229244606115)"><circle class="outline" cx="0" cy="0" r="25" fill="#4C8EDA" stroke="#2870c2" stroke-width="2px"/><text text-anchor="middle" pointer-events="none" font-family="sans-serif" dy="1.5625" font-size="25" fill="#FFFFFF"/><text text-anchor="middle" pointer-events="none" x="0" y="5" font-size="10px" fill="#FFFFFF" font-family="sans-serif"> 11/29/20…</text></g><g class="node" transform="translate(18.259534392885897,-558.0445473835828)"><circle class="outline" cx="0" cy="0" r="25" fill="#4C8EDA" stroke="#2870c2" stroke-width="2px"/><text text-anchor="middle" pointer-events="none" font-family="sans-serif" dy="1.5625" font-size="25" fill="#FFFFFF"/><text text-anchor="middle" pointer-events="none" x="0" y="5" font-size="10px" fill="#FFFFFF" font-family="sans-serif"> 11/29/20…</text></g><g class="node" transform="translate(-427.75583006841975,-92.51759745447153)"><circle class="outline" cx="0" cy="0" r="25" fill="#4C8EDA" stroke="#2870c2" stroke-width="2px"/><text text-anchor="middle" pointer-events="none" font-family="sans-serif" dy="1.5625" font-size="25" fill="#FFFFFF"/><text text-anchor="middle" pointer-events="none" x="0" y="5" font-size="10px" fill="#FFFFFF" font-family="sans-serif"> 11/29/20…</text></g><g class="node" transform="translate(-377.9643126202109,-60.02921978282424)"><circle class="outline" cx="0" cy="0" r="25" fill="#4C8EDA" stroke="#2870c2" stroke-width="2px"/><text text-anchor="middle" pointer-events="none" font-family="sans-serif" dy="1.5625" font-size="25" fill="#FFFFFF"/><text text-anchor="middle" pointer-events="none" x="0" y="5" font-size="10px" fill="#FFFFFF" font-family="sans-serif"> 11/29/20…</text></g><g class="node" transform="translate(-431.1508321311718,-33.38784337125623)"><circle class="outline" cx="0" cy="0" r="25" fill="#4C8EDA" stroke="#2870c2" stroke-width="2px"/><text text-anchor="middle" pointer-events="none" font-family="sans-serif" dy="1.5625" font-size="25" fill="#FFFFFF"/><text text-anchor="middle" pointer-events="none" x="0" y="5" font-size="10px" fill="#FFFFFF" font-family="sans-serif"> 11/30/20…</text></g><g class="node" transform="translate(-91.12681910455208,-167.19617012191512)"><circle class="outline" cx="0" cy="0" r="25" fill="#4C8EDA" stroke="#2870c2" stroke-width="2px"/><text text-anchor="middle" pointer-events="none" font-family="sans-serif" dy="1.5625" font-size="25" fill="#FFFFFF"/><text text-anchor="middle" pointer-events="none" x="0" y="5" font-size="10px" fill="#FFFFFF" font-family="sans-serif"> 11/29/20…</text></g><g class="node" transform="translate(151.17602904766326,84.6279508370322)"><circle class="outline" cx="0" cy="0" r="25" fill="#4C8EDA" stroke="#2870c2" stroke-width="2px"/><text text-anchor="middle" pointer-events="none" font-family="sans-serif" dy="1.5625" font-size="25" fill="#FFFFFF"/><text text-anchor="middle" pointer-events="none" x="0" y="5" font-size="10px" fill="#FFFFFF" font-family="sans-serif"> 11/29/20…</text></g><g class="node" transform="translate(39.74352855506224,-78.42187215839175)"><circle class="outline" cx="0" cy="0" r="25" fill="#ECB5C9" stroke="#da7298" stroke-width="2px"/><text text-anchor="middle" pointer-events="none" font-family="sans-serif" dy="1.5625" font-size="25" fill="#2A2C34"/><text text-anchor="middle" pointer-events="none" x="0" y="5" font-size="10px" fill="#2A2C34" font-family="sans-serif"> LAS</text></g><g class="node" transform="translate(-54.32042150542977,-305.1494766548732)"><circle class="outline" cx="0" cy="0" r="25" fill="#4C8EDA" stroke="#2870c2" stroke-width="2px"/><text text-anchor="middle" pointer-events="none" font-family="sans-serif" dy="1.5625" font-size="25" fill="#FFFFFF"/><text text-anchor="middle" pointer-events="none" x="0" y="5" font-size="10px" fill="#FFFFFF" font-family="sans-serif"> 11/29/20…</text></g><g class="node" transform="translate(2.9516619559271757,-320.8453273709276)"><circle class="outline" cx="0" cy="0" r="25" fill="#4C8EDA" stroke="#2870c2" stroke-width="2px"/><text text-anchor="middle" pointer-events="none" font-family="sans-serif" dy="1.5625" font-size="25" fill="#FFFFFF"/><text text-anchor="middle" pointer-events="none" x="0" y="5" font-size="10px" fill="#FFFFFF" font-family="sans-serif"> 11/29/20…</text></g><g class="node" transform="translate(-381.70170787849213,-0.31613200548812403)"><circle class="outline" cx="0" cy="0" r="25" fill="#4C8EDA" stroke="#2870c2" stroke-width="2px"/><text text-anchor="middle" pointer-events="none" font-family="sans-serif" dy="1.5625" font-size="25" fill="#FFFFFF"/><text text-anchor="middle" pointer-events="none" x="0" y="5" font-size="10px" fill="#FFFFFF" font-family="sans-serif"> 11/30/20…</text></g><g class="node" transform="translate(-353.52158918799944,-114.63067128606852)"><circle class="outline" cx="0" cy="0" r="25" fill="#4C8EDA" stroke="#2870c2" stroke-width="2px"/><text text-anchor="middle" pointer-events="none" font-family="sans-serif" dy="1.5625" font-size="25" fill="#FFFFFF"/><text text-anchor="middle" pointer-events="none" x="0" y="5" font-size="10px" fill="#FFFFFF" font-family="sans-serif"> 11/30/20…</text></g><g class="node" transform="translate(-228.82666348276408,101.91250907451152)"><circle class="outline" cx="0" cy="0" r="25" fill="#4C8EDA" stroke="#2870c2" stroke-width="2px"/><text text-anchor="middle" pointer-events="none" font-family="sans-serif" dy="1.5625" font-size="25" fill="#FFFFFF"/><text text-anchor="middle" pointer-events="none" x="0" y="5" font-size="10px" fill="#FFFFFF" font-family="sans-serif"> 11/30/20…</text></g><g class="node" transform="translate(-328.64851714766905,-26.712976620571794)"><circle class="outline" cx="0" cy="0" r="25" fill="#4C8EDA" stroke="#2870c2" stroke-width="2px"/><text text-anchor="middle" pointer-events="none" font-family="sans-serif" dy="1.5625" font-size="25" fill="#FFFFFF"/><text text-anchor="middle" pointer-events="none" x="0" y="5" font-size="10px" fill="#FFFFFF" font-family="sans-serif"> 11/29/20…</text></g><g class="node" transform="translate(-116.05660281503256,-16.50011080262699)"><circle class="outline" cx="0" cy="0" r="25" fill="#4C8EDA" stroke="#2870c2" stroke-width="2px"/><text text-anchor="middle" pointer-events="none" font-family="sans-serif" dy="1.5625" font-size="25" fill="#FFFFFF"/><text text-anchor="middle" pointer-events="none" x="0" y="5" font-size="10px" fill="#FFFFFF" font-family="sans-serif"> 11/29/20…</text></g></g></svg>