<svg xmlns="http://www.w3.org/2000/svg" width="688.6461791992188" height="580.8331298828125" viewBox="-256.69940185546875 -182.48089599609375 688.6461791992188 580.8331298828125"><title>Neo4j Graph Visualization</title><desc>Created using Neo4j (http://www.neo4j.com/)</desc><g class="layer relationships"><g class="relationship" transform="translate(31.9195973712836 318.23769575386365) rotate(285.07495046838955)"><path class="outline" fill="#A5ABB6" stroke="none" d="M 25 0.5 L 75.88229778339266 0.5 L 75.88229778339266 -0.5 L 25 -0.5 Z M 110.32761028339266 0.5 L 161.20990806678532 0.5 L 161.20990806678532 3.5 L 168.20990806678532 0 L 161.20990806678532 -3.5 L 161.20990806678532 -0.5 L 110.32761028339266 -0.5 Z"/><text text-anchor="middle" pointer-events="none" font-size="8px" fill="#000000" x="93.10495403339266" y="3" font-family="sans-serif">ORIGIN</text></g><g class="relationship" transform="translate(31.9195973712836 318.23769575386365) rotate(511.3703377706294)"><path class="outline" fill="#A5ABB6" stroke="none" d="M 25 0.5 L 25.50323992141528 0.5 L 25.50323992141528 -0.5 L 25 -0.5 Z M 74.17511492141529 0.5 L 74.67835484283056 0.5 L 74.67835484283056 3.5 L 81.67835484283056 0 L 74.67835484283056 -3.5 L 74.67835484283056 -0.5 L 74.17511492141529 -0.5 Z"/><text text-anchor="middle" pointer-events="none" font-size="8px" fill="#000000" x="49.83917742141528" y="3" transform="rotate(180 49.83917742141528 0)" font-family="sans-serif">DESTINA…</text></g><g class="relationship" transform="translate(225.9012947549506 254.42113137249524) rotate(220.49683183327113)"><path class="outline" fill="#A5ABB6" stroke="none" d="M 25 0.5 L 73.78239984504562 0.5 L 73.78239984504562 -0.5 L 25 -0.5 Z M 108.22771234504562 0.5 L 157.01011219009123 0.5 L 157.01011219009123 3.5 L 164.01011219009123 0 L 157.01011219009123 -3.5 L 157.01011219009123 -0.5 L 108.22771234504562 -0.5 Z"/><text text-anchor="middle" pointer-events="none" font-size="8px" fill="#000000" x="91.00505609504562" y="3" transform="rotate(180 91.00505609504562 0)" font-family="sans-serif">ORIGIN</text></g><g class="relationship" transform="translate(225.9012947549506 254.42113137249524) rotate(399.93752820019847)"><path class="outline" fill="#A5ABB6" stroke="none" d="M 25 0.5 L 26.10215571375766 0.5 L 26.10215571375766 -0.5 L 25 -0.5 Z M 69.43809321375767 0.5 L 70.54024892751532 0.5 L 70.54024892751532 3.5 L 77.54024892751532 0 L 70.54024892751532 -3.5 L 70.54024892751532 -0.5 L 69.43809321375767 -0.5 Z"/><text text-anchor="middle" pointer-events="none" font-size="8px" fill="#000000" x="47.77012446375766" y="3" font-family="sans-serif">DESTIN…</text></g><g class="relationship" transform="translate(-15.737572086341622 281.88711815333363) rotate(303.09646856533936)"><path class="outline" fill="#A5ABB6" stroke="none" d="M 25 0.5 L 68.92811197121772 0.5 L 68.92811197121772 -0.5 L 25 -0.5 Z M 103.37342447121772 0.5 L 147.30153644243543 0.5 L 147.30153644243543 3.5 L 154.30153644243543 0 L 147.30153644243543 -3.5 L 147.30153644243543 -0.5 L 103.37342447121772 -0.5 Z"/><text text-anchor="middle" pointer-events="none" font-size="8px" fill="#000000" x="86.15076822121772" y="3" font-family="sans-serif">ORIGIN</text></g><g class="relationship" transform="translate(-15.737572086341622 281.88711815333363) rotate(477.7297484649371)"><path class="outline" fill="#A5ABB6" stroke="none" d="M 25 0.5 L 27.127530550555285 0.5 L 27.127530550555285 -0.5 L 25 -0.5 Z M 64.68612430055529 0.5 L 66.81365485111057 0.5 L 66.81365485111057 3.5 L 73.81365485111057 0 L 66.81365485111057 -3.5 L 66.81365485111057 -0.5 L 64.68612430055529 -0.5 Z"/><text text-anchor="middle" pointer-events="none" font-size="8px" fill="#000000" x="45.906827425555285" y="3" transform="rotate(180 45.906827425555285 0)" font-family="sans-serif">DESTI…</text></g><g class="relationship" transform="translate(246.2689452213494 123.49131552665754) rotate(537.144361243247)"><path class="outline" fill="#A5ABB6" stroke="none" d="M 25 0.5 L 61.42878433984676 0.5 L 61.42878433984676 -0.5 L 25 -0.5 Z M 95.87409683984676 0.5 L 132.30288117969351 0.5 L 132.30288117969351 3.5 L 139.30288117969351 0 L 132.30288117969351 -3.5 L 132.30288117969351 -0.5 L 95.87409683984676 -0.5 Z"/><text text-anchor="middle" pointer-events="none" font-size="8px" fill="#000000" x="78.65144058984676" y="3" transform="rotate(180 78.65144058984676 0)" font-family="sans-serif">ORIGIN</text></g><g class="relationship" transform="translate(246.2689452213494 123.49131552665754) rotate(359.4017484865649)"><path class="outline" fill="#A5ABB6" stroke="none" d="M 25 0.5 L 45.249448196499344 0.5 L 45.249448196499344 -0.5 L 25 -0.5 Z M 104.43694819649934 0.5 L 124.68639639299869 0.5 L 124.68639639299869 3.5 L 131.6863963929987 0 L 124.68639639299869 -3.5 L 124.68639639299869 -0.5 L 104.43694819649934 -0.5 Z"/><text text-anchor="middle" pointer-events="none" font-size="8px" fill="#000000" x="74.84319819649934" y="3" font-family="sans-serif">DESTINATION</text></g><g class="relationship" transform="translate(46.27649771109378 4.675804491477052) rotate(434.21841173993926)"><path class="outline" fill="#A5ABB6" stroke="none" d="M 25 0.5 L 45.26524143964117 0.5 L 45.26524143964117 -0.5 L 25 -0.5 Z M 79.71055393964117 0.5 L 99.97579537928235 0.5 L 99.97579537928235 3.5 L 106.97579537928235 0 L 99.97579537928235 -3.5 L 99.97579537928235 -0.5 L 79.71055393964117 -0.5 Z"/><text text-anchor="middle" pointer-events="none" font-size="8px" fill="#000000" x="62.48789768964117" y="3" font-family="sans-serif">ORIGIN</text></g><g class="relationship" transform="translate(46.27649771109378 4.675804491477052) rotate(257.89862910140823)"><path class="outline" fill="#A5ABB6" stroke="none" d="M 25 0.5 L 47.78179710983099 0.5 L 47.78179710983099 -0.5 L 25 -0.5 Z M 106.96929710983099 0.5 L 129.75109421966198 0.5 L 129.75109421966198 3.5 L 136.75109421966198 0 L 129.75109421966198 -3.5 L 129.75109421966198 -0.5 L 106.96929710983099 -0.5 Z"/><text text-anchor="middle" pointer-events="none" font-size="8px" fill="#000000" x="77.37554710983099" y="3" transform="rotate(180 77.37554710983099 0)" font-family="sans-serif">DESTINATION</text></g><g class="relationship" transform="translate(91.99872654803951 -38.825439245714996) rotate(453.2991750768647)"><path class="outline" fill="#A5ABB6" stroke="none" d="M 25 0.5 L 64.67000445915185 0.5 L 64.67000445915185 -0.5 L 25 -0.5 Z M 99.11531695915185 0.5 L 138.7853214183037 0.5 L 138.7853214183037 3.5 L 145.7853214183037 0 L 138.7853214183037 -3.5 L 138.7853214183037 -0.5 L 99.11531695915185 -0.5 Z"/><text text-anchor="middle" pointer-events="none" font-size="8px" fill="#000000" x="81.89266070915185" y="3" transform="rotate(180 81.89266070915185 0)" font-family="sans-serif">ORIGIN</text></g><g class="relationship" transform="translate(91.99872654803951 -38.825439245714996) rotate(235.21872921656808)"><path class="outline" fill="#A5ABB6" stroke="none" d="M 25 0.5 L 36.70441540844662 0.5 L 36.70441540844662 -0.5 L 25 -0.5 Z M 95.89191540844662 0.5 L 107.59633081689324 0.5 L 107.59633081689324 3.5 L 114.59633081689324 0 L 107.59633081689324 -3.5 L 107.59633081689324 -0.5 L 95.89191540844662 -0.5 Z"/><text text-anchor="middle" pointer-events="none" font-size="8px" fill="#000000" x="66.29816540844662" y="3" transform="rotate(180 66.29816540844662 0)" font-family="sans-serif">DESTINATION</text></g><g class="relationship" transform="translate(39.443786580471155 258.747410436447) rotate(288.58474095940755)"><path class="outline" fill="#A5ABB6" stroke="none" d="M 25 0.5 L 46.308063164690196 0.5 L 46.308063164690196 -0.5 L 25 -0.5 Z M 80.7533756646902 0.5 L 102.06143882938039 0.5 L 102.06143882938039 3.5 L 109.06143882938039 0 L 102.06143882938039 -3.5 L 102.06143882938039 -0.5 L 80.7533756646902 -0.5 Z"/><text text-anchor="middle" pointer-events="none" font-size="8px" fill="#000000" x="63.530719414690196" y="3" font-family="sans-serif">ORIGIN</text></g><g class="relationship" transform="translate(39.443786580471155 258.747410436447) rotate(492.44613354588074)"><path class="outline" fill="#A5ABB6" stroke="none" d="M 25 0.5 L 41.850689623103506 0.5 L 41.850689623103506 -0.5 L 25 -0.5 Z M 101.0381896231035 0.5 L 117.88887924620701 0.5 L 117.88887924620701 3.5 L 124.88887924620701 0 L 117.88887924620701 -3.5 L 117.88887924620701 -0.5 L 101.0381896231035 -0.5 Z"/><text text-anchor="middle" pointer-events="none" font-size="8px" fill="#000000" x="71.4444396231035" y="3" transform="rotate(180 71.4444396231035 0)" font-family="sans-serif">DESTINATION</text></g><g class="relationship" transform="translate(245.83191539315854 197.87951474338365) rotate(202.02377627066323)"><path class="outline" fill="#A5ABB6" stroke="none" d="M 25 0.5 L 67.54963320624739 0.5 L 67.54963320624739 -0.5 L 25 -0.5 Z M 101.99494570624739 0.5 L 144.54457891249479 0.5 L 144.54457891249479 3.5 L 151.54457891249479 0 L 144.54457891249479 -3.5 L 144.54457891249479 -0.5 L 101.99494570624739 -0.5 Z"/><text text-anchor="middle" pointer-events="none" font-size="8px" fill="#000000" x="84.77228945624739" y="3" transform="rotate(180 84.77228945624739 0)" font-family="sans-serif">ORIGIN</text></g><g class="relationship" transform="translate(245.83191539315854 197.87951474338365) rotate(424.37605625316183)"><path class="outline" fill="#A5ABB6" stroke="none" d="M 25 0.5 L 34.763665447709215 0.5 L 34.763665447709215 -0.5 L 25 -0.5 Z M 93.95116544770922 0.5 L 103.71483089541843 0.5 L 103.71483089541843 3.5 L 110.71483089541843 0 L 103.71483089541843 -3.5 L 103.71483089541843 -0.5 L 93.95116544770922 -0.5 Z"/><text text-anchor="middle" pointer-events="none" font-size="8px" fill="#000000" x="64.35741544770922" y="3" font-family="sans-serif">DESTINATION</text></g><g class="relationship" transform="translate(34.060141999513405 -53.780047907542134) rotate(435.4572845544047)"><path class="outline" fill="#A5ABB6" stroke="none" d="M 25 0.5 L 75.07507444876882 0.5 L 75.07507444876882 -0.5 L 25 -0.5 Z M 109.52038694876882 0.5 L 159.59546139753763 0.5 L 159.59546139753763 3.5 L 166.59546139753763 0 L 159.59546139753763 -3.5 L 159.59546139753763 -0.5 L 109.52038694876882 -0.5 Z"/><text text-anchor="middle" pointer-events="none" font-size="8px" fill="#000000" x="92.29773069876882" y="3" font-family="sans-serif">ORIGIN</text></g><g class="relationship" transform="translate(34.060141999513405 -53.780047907542134) rotate(257.7246009893604)"><path class="outline" fill="#A5ABB6" stroke="none" d="M 25 0.5 L 25.84885364132724 0.5 L 25.84885364132724 -0.5 L 25 -0.5 Z M 69.18479114132724 0.5 L 70.03364478265448 0.5 L 70.03364478265448 3.5 L 77.03364478265448 0 L 70.03364478265448 -3.5 L 70.03364478265448 -0.5 L 69.18479114132724 -0.5 Z"/><text text-anchor="middle" pointer-events="none" font-size="8px" fill="#000000" x="47.51682239132724" y="3" transform="rotate(180 47.51682239132724 0)" font-family="sans-serif">DESTIN…</text></g><g class="relationship" transform="translate(151.18284791744074 -21.143640579320753) rotate(474.3036339833331)"><path class="outline" fill="#A5ABB6" stroke="none" d="M 25 0.5 L 63.11775317073071 0.5 L 63.11775317073071 -0.5 L 25 -0.5 Z M 97.56306567073071 0.5 L 135.68081884146142 0.5 L 135.68081884146142 3.5 L 142.68081884146142 0 L 135.68081884146142 -3.5 L 135.68081884146142 -0.5 L 97.56306567073071 -0.5 Z"/><text text-anchor="middle" pointer-events="none" font-size="8px" fill="#000000" x="80.34040942073071" y="3" transform="rotate(180 80.34040942073071 0)" font-family="sans-serif">ORIGIN</text></g><g class="relationship" transform="translate(151.18284791744074 -21.143640579320753) rotate(311.0241938011701)"><path class="outline" fill="#A5ABB6" stroke="none" d="M 25 0.5 L 37.70258712060809 0.5 L 37.70258712060809 -0.5 L 25 -0.5 Z M 96.89008712060809 0.5 L 109.59267424121617 0.5 L 109.59267424121617 3.5 L 116.59267424121617 0 L 109.59267424121617 -3.5 L 109.59267424121617 -0.5 L 96.89008712060809 -0.5 Z"/><text text-anchor="middle" pointer-events="none" font-size="8px" fill="#000000" x="67.29633712060809" y="3" font-family="sans-serif">DESTINATION</text></g><g class="relationship" transform="translate(-10.850488614740051 -14.162471914928568) rotate(417.4690762435848)"><path class="outline" fill="#A5ABB6" stroke="none" d="M 25 0.5 L 65.76712670082617 0.5 L 65.76712670082617 -0.5 L 25 -0.5 Z M 100.21243920082617 0.5 L 140.97956590165234 0.5 L 140.97956590165234 3.5 L 147.97956590165234 0 L 140.97956590165234 -3.5 L 140.97956590165234 -0.5 L 100.21243920082617 -0.5 Z"/><text text-anchor="middle" pointer-events="none" font-size="8px" fill="#000000" x="82.98978295082617" y="3" font-family="sans-serif">ORIGIN</text></g><g class="relationship" transform="translate(-10.850488614740051 -14.162471914928568) rotate(279.46129521479605)"><path class="outline" fill="#A5ABB6" stroke="none" d="M 25 0.5 L 37.52611149845188 0.5 L 37.52611149845188 -0.5 L 25 -0.5 Z M 96.71361149845188 0.5 L 109.23972299690377 0.5 L 109.23972299690377 3.5 L 116.23972299690377 0 L 109.23972299690377 -3.5 L 109.23972299690377 -0.5 L 96.71361149845188 -0.5 Z"/><text text-anchor="middle" pointer-events="none" font-size="8px" fill="#000000" x="67.11986149845188" y="3" font-family="sans-serif">DESTINATION</text></g><g class="relationship" transform="translate(-55.301439806076935 47.215970790514646) rotate(391.5660668822165)"><path class="outline" fill="#A5ABB6" stroke="none" d="M 25 0.5 L 59.949610428802245 0.5 L 59.949610428802245 -0.5 L 25 -0.5 Z M 94.39492292880225 0.5 L 129.3445333576045 0.5 L 129.3445333576045 3.5 L 136.3445333576045 0 L 129.3445333576045 -3.5 L 129.3445333576045 -0.5 L 94.39492292880225 -0.5 Z"/><text text-anchor="middle" pointer-events="none" font-size="8px" fill="#000000" x="77.17226667880225" y="3" font-family="sans-serif">ORIGIN</text></g><g class="relationship" transform="translate(-55.301439806076935 47.215970790514646) rotate(219.5411546039635)"><path class="outline" fill="#A5ABB6" stroke="none" d="M 25 0.5 L 43.73348649938458 0.5 L 43.73348649938458 -0.5 L 25 -0.5 Z M 102.92098649938458 0.5 L 121.65447299876917 0.5 L 121.65447299876917 3.5 L 128.65447299876917 0 L 121.65447299876917 -3.5 L 121.65447299876917 -0.5 L 102.92098649938458 -0.5 Z"/><text text-anchor="middle" pointer-events="none" font-size="8px" fill="#000000" x="73.32723649938458" y="3" transform="rotate(180 73.32723649938458 0)" font-family="sans-serif">DESTINATION</text></g><g class="relationship" transform="translate(-8.429595439942652 222.59268143736338) rotate(314.90020187344874)"><path class="outline" fill="#A5ABB6" stroke="none" d="M 25 0.5 L 43.45287468378656 0.5 L 43.45287468378656 -0.5 L 25 -0.5 Z M 77.89818718378656 0.5 L 96.35106186757312 0.5 L 96.35106186757312 3.5 L 103.35106186757312 0 L 96.35106186757312 -3.5 L 96.35106186757312 -0.5 L 77.89818718378656 -0.5 Z"/><text text-anchor="middle" pointer-events="none" font-size="8px" fill="#000000" x="60.67553093378656" y="3" font-family="sans-serif">ORIGIN</text></g><g class="relationship" transform="translate(-8.429595439942652 222.59268143736338) rotate(469.95518069575724)"><path class="outline" fill="#A5ABB6" stroke="none" d="M 25 0.5 L 44.97317606902752 0.5 L 44.97317606902752 -0.5 L 25 -0.5 Z M 104.16067606902752 0.5 L 124.13385213805503 0.5 L 124.13385213805503 3.5 L 131.13385213805503 0 L 124.13385213805503 -3.5 L 124.13385213805503 -0.5 L 104.16067606902752 -0.5 Z"/><text text-anchor="middle" pointer-events="none" font-size="8px" fill="#000000" x="74.56692606902752" y="3" transform="rotate(180 74.56692606902752 0)" font-family="sans-serif">DESTINATION</text></g><g class="relationship" transform="translate(187.0126236295522 209.08744448189253) rotate(216.44035196817714)"><path class="outline" fill="#A5ABB6" stroke="none" d="M 25 0.5 L 44.43937244101451 0.5 L 44.43937244101451 -0.5 L 25 -0.5 Z M 78.88468494101451 0.5 L 98.32405738202903 0.5 L 98.32405738202903 3.5 L 105.32405738202903 0 L 98.32405738202903 -3.5 L 98.32405738202903 -0.5 L 78.88468494101451 -0.5 Z"/><text text-anchor="middle" pointer-events="none" font-size="8px" fill="#000000" x="61.66202869101451" y="3" transform="rotate(180 61.66202869101451 0)" font-family="sans-serif">ORIGIN</text></g><g class="relationship" transform="translate(187.0126236295522 209.08744448189253) rotate(403.40903054172264)"><path class="outline" fill="#A5ABB6" stroke="none" d="M 25 0.5 L 47.78465222684612 0.5 L 47.78465222684612 -0.5 L 25 -0.5 Z M 106.97215222684612 0.5 L 129.75680445369224 0.5 L 129.75680445369224 3.5 L 136.75680445369224 0 L 129.75680445369224 -3.5 L 129.75680445369224 -0.5 L 106.97215222684612 -0.5 Z"/><text text-anchor="middle" pointer-events="none" font-size="8px" fill="#000000" x="77.37840222684612" y="3" font-family="sans-serif">DESTINATION</text></g><g class="relationship" transform="translate(-78.13428710763048 109.63407406108419) rotate(367.8293937369327)"><path class="outline" fill="#A5ABB6" stroke="none" d="M 25 0.5 L 60.18373501884443 0.5 L 60.18373501884443 -0.5 L 25 -0.5 Z M 94.62904751884443 0.5 L 129.81278253768886 0.5 L 129.81278253768886 3.5 L 136.81278253768886 0 L 129.81278253768886 -3.5 L 129.81278253768886 -0.5 L 94.62904751884443 -0.5 Z"/><text text-anchor="middle" pointer-events="none" font-size="8px" fill="#000000" x="77.40639126884443" y="3" font-family="sans-serif">ORIGIN</text></g><g class="relationship" transform="translate(-78.13428710763048 109.63407406108419) rotate(186.10881264846455)"><path class="outline" fill="#A5ABB6" stroke="none" d="M 25 0.5 L 42.115869009739896 0.5 L 42.115869009739896 -0.5 L 25 -0.5 Z M 101.3033690097399 0.5 L 118.41923801947979 0.5 L 118.41923801947979 3.5 L 125.41923801947979 0 L 118.41923801947979 -3.5 L 118.41923801947979 -0.5 L 101.3033690097399 -0.5 Z"/><text text-anchor="middle" pointer-events="none" font-size="8px" fill="#000000" x="71.7096190097399" y="3" transform="rotate(180 71.7096190097399 0)" font-family="sans-serif">DESTINATION</text></g><g class="relationship" transform="translate(-70.54722887063012 257.4659217982703) rotate(320.522647418745)"><path class="outline" fill="#A5ABB6" stroke="none" d="M 25 0.5 L 78.20342117671613 0.5 L 78.20342117671613 -0.5 L 25 -0.5 Z M 112.64873367671613 0.5 L 165.85215485343227 0.5 L 165.85215485343227 3.5 L 172.85215485343227 0 L 165.85215485343227 -3.5 L 165.85215485343227 -0.5 L 112.64873367671613 -0.5 Z"/><text text-anchor="middle" pointer-events="none" font-size="8px" fill="#000000" x="95.42607742671613" y="3" font-family="sans-serif">ORIGIN</text></g><g class="relationship" transform="translate(-70.54722887063012 257.4659217982703) rotate(445.4868429805185)"><path class="outline" fill="#A5ABB6" stroke="none" d="M 25 0.5 L 25.023411021713933 0.5 L 25.023411021713933 -0.5 L 25 -0.5 Z M 80.21091102171394 0.5 L 80.23432204342787 0.5 L 80.23432204342787 3.5 L 87.23432204342787 0 L 80.23432204342787 -3.5 L 80.23432204342787 -0.5 L 80.21091102171394 -0.5 Z"/><text text-anchor="middle" pointer-events="none" font-size="8px" fill="#000000" x="52.61716102171393" y="3" font-family="sans-serif">DESTINATI…</text></g><g class="relationship" transform="translate(-63.13697630985622 198.26219508406064) rotate(335.3809020542251)"><path class="outline" fill="#A5ABB6" stroke="none" d="M 25 0.5 L 59.19566842323641 0.5 L 59.19566842323641 -0.5 L 25 -0.5 Z M 93.64098092323641 0.5 L 127.83664934647283 0.5 L 127.83664934647283 3.5 L 134.83664934647283 0 L 127.83664934647283 -3.5 L 127.83664934647283 -0.5 L 93.64098092323641 -0.5 Z"/><text text-anchor="middle" pointer-events="none" font-size="8px" fill="#000000" x="76.41832467323641" y="3" font-family="sans-serif">ORIGIN</text></g><g class="relationship" transform="translate(-63.13697630985622 198.26219508406064) rotate(449.5240552657523)"><path class="outline" fill="#A5ABB6" stroke="none" d="M 25 0.5 L 52.45422288680999 0.5 L 52.45422288680999 -0.5 L 25 -0.5 Z M 111.64172288680999 0.5 L 139.09594577361997 0.5 L 139.09594577361997 3.5 L 146.09594577361997 0 L 139.09594577361997 -3.5 L 139.09594577361997 -0.5 L 111.64172288680999 -0.5 Z"/><text text-anchor="middle" pointer-events="none" font-size="8px" fill="#000000" x="82.04797288680999" y="3" font-family="sans-serif">DESTINATION</text></g><g class="relationship" transform="translate(230.63012481413102 62.68431063991448) rotate(515.0747096595558)"><path class="outline" fill="#A5ABB6" stroke="none" d="M 25 0.5 L 61.131405273398855 0.5 L 61.131405273398855 -0.5 L 25 -0.5 Z M 95.57671777339885 0.5 L 131.7081230467977 0.5 L 131.7081230467977 3.5 L 138.7081230467977 0 L 131.7081230467977 -3.5 L 131.7081230467977 -0.5 L 95.57671777339885 -0.5 Z"/><text text-anchor="middle" pointer-events="none" font-size="8px" fill="#000000" x="78.35406152339885" y="3" transform="rotate(180 78.35406152339885 0)" font-family="sans-serif">ORIGIN</text></g><g class="relationship" transform="translate(230.63012481413102 62.68431063991448) rotate(327.7770194000591)"><path class="outline" fill="#A5ABB6" stroke="none" d="M 25 0.5 L 46.72767282339905 0.5 L 46.72767282339905 -0.5 L 25 -0.5 Z M 105.91517282339905 0.5 L 127.6428456467981 0.5 L 127.6428456467981 3.5 L 134.6428456467981 0 L 127.6428456467981 -3.5 L 127.6428456467981 -0.5 L 105.91517282339905 -0.5 Z"/><text text-anchor="middle" pointer-events="none" font-size="8px" fill="#000000" x="76.32142282339905" y="3" font-family="sans-serif">DESTINATION</text></g><g class="relationship" transform="translate(170.2781636251456 276.49507963980716) rotate(238.68348108656915)"><path class="outline" fill="#A5ABB6" stroke="none" d="M 25 0.5 L 64.03487716420395 0.5 L 64.03487716420395 -0.5 L 25 -0.5 Z M 98.48018966420395 0.5 L 137.5150668284079 0.5 L 137.5150668284079 3.5 L 144.5150668284079 0 L 137.5150668284079 -3.5 L 137.5150668284079 -0.5 L 98.48018966420395 -0.5 Z"/><text text-anchor="middle" pointer-events="none" font-size="8px" fill="#000000" x="81.25753341420395" y="3" transform="rotate(180 81.25753341420395 0)" font-family="sans-serif">ORIGIN</text></g><g class="relationship" transform="translate(170.2781636251456 276.49507963980716) rotate(378.0513338304591)"><path class="outline" fill="#A5ABB6" stroke="none" d="M 25 0.5 L 37.503780964654496 0.5 L 37.503780964654496 -0.5 L 25 -0.5 Z M 96.6912809646545 0.5 L 109.19506192930899 0.5 L 109.19506192930899 3.5 L 116.19506192930899 0 L 109.19506192930899 -3.5 L 109.19506192930899 -0.5 L 96.6912809646545 -0.5 Z"/><text text-anchor="middle" pointer-events="none" font-size="8px" fill="#000000" x="67.0975309646545" y="3" font-family="sans-serif">DESTINATION</text></g><g class="relationship" transform="translate(86.9435754357214 295.19524088276404) rotate(268.32787705188105)"><path class="outline" fill="#A5ABB6" stroke="none" d="M 25 0.5 L 61.07137891180639 0.5 L 61.07137891180639 -0.5 L 25 -0.5 Z M 95.51669141180639 0.5 L 131.58807032361278 0.5 L 131.58807032361278 3.5 L 138.58807032361278 0 L 131.58807032361278 -3.5 L 131.58807032361278 -0.5 L 95.51669141180639 -0.5 Z"/><text text-anchor="middle" pointer-events="none" font-size="8px" fill="#000000" x="78.29403516180639" y="3" transform="rotate(180 78.29403516180639 0)" font-family="sans-serif">ORIGIN</text></g><g class="relationship" transform="translate(86.9435754357214 295.19524088276404) rotate(513.4882094546593)"><path class="outline" fill="#A5ABB6" stroke="none" d="M 25 0.5 L 49.97075806569916 0.5 L 49.97075806569916 -0.5 L 25 -0.5 Z M 109.15825806569916 0.5 L 134.12901613139832 0.5 L 134.12901613139832 3.5 L 141.12901613139832 0 L 134.12901613139832 -3.5 L 134.12901613139832 -0.5 L 109.15825806569916 -0.5 Z"/><text text-anchor="middle" pointer-events="none" font-size="8px" fill="#000000" x="79.56450806569916" y="3" transform="rotate(180 79.56450806569916 0)" font-family="sans-serif">DESTINATION</text></g><g class="relationship" transform="translate(202.48913833561198 9.634520110542613) rotate(494.5926165812787)"><path class="outline" fill="#A5ABB6" stroke="none" d="M 25 0.5 L 64.96718962703669 0.5 L 64.96718962703669 -0.5 L 25 -0.5 Z M 99.41250212703669 0.5 L 139.37969175407338 0.5 L 139.37969175407338 3.5 L 146.37969175407338 0 L 139.37969175407338 -3.5 L 139.37969175407338 -0.5 L 99.41250212703669 -0.5 Z"/><text text-anchor="middle" pointer-events="none" font-size="8px" fill="#000000" x="82.18984587703669" y="3" transform="rotate(180 82.18984587703669 0)" font-family="sans-serif">ORIGIN</text></g><g class="relationship" transform="translate(202.48913833561198 9.634520110542613) rotate(286.8335774938902)"><path class="outline" fill="#A5ABB6" stroke="none" d="M 25 0.5 L 38.786457360414175 0.5 L 38.786457360414175 -0.5 L 25 -0.5 Z M 97.97395736041418 0.5 L 111.76041472082835 0.5 L 111.76041472082835 3.5 L 118.76041472082835 0 L 111.76041472082835 -3.5 L 111.76041472082835 -0.5 L 97.97395736041418 -0.5 Z"/><text text-anchor="middle" pointer-events="none" font-size="8px" fill="#000000" x="68.38020736041418" y="3" font-family="sans-serif">DESTINATION</text></g></g><g class="layer nodes"><g class="node" transform="translate(82.1700905283017,131.67683031673047)"><circle class="outline" cx="0" cy="0" r="25" fill="#ECB5C9" stroke="#da7298" stroke-width="2px"/><text text-anchor="middle" pointer-events="none" font-family="sans-serif" dy="1.5625" font-size="25" fill="#2A2C34"/><text text-anchor="middle" pointer-events="none" x="0" y="5" font-size="10px" fill="#2A2C34" font-family="sans-serif"> LAX</text></g><g class="node" transform="translate(-61.71573239579189,369.35223782736654)"><circle class="outline" cx="0" cy="0" r="25" fill="#ECB5C9" stroke="#da7298" stroke-width="2px"/><text text-anchor="middle" pointer-events="none" font-family="sans-serif" dy="1.5625" font-size="25" fill="#2A2C34"/><text text-anchor="middle" pointer-events="none" x="0" y="5" font-size="10px" fill="#2A2C34" font-family="sans-serif"> ABQ</text></g><g class="node" transform="translate(304.5235018988795,320.24704719547447)"><circle class="outline" cx="0" cy="0" r="25" fill="#ECB5C9" stroke="#da7298" stroke-width="2px"/><text text-anchor="middle" pointer-events="none" font-family="sans-serif" dy="1.5625" font-size="25" fill="#2A2C34"/><text text-anchor="middle" pointer-events="none" x="0" y="5" font-size="10px" fill="#2A2C34" font-family="sans-serif"> FAT</text></g><g class="node" transform="translate(402.94680039848265,121.85531072312557)"><circle class="outline" cx="0" cy="0" r="25" fill="#ECB5C9" stroke="#da7298" stroke-width="2px"/><text text-anchor="middle" pointer-events="none" font-family="sans-serif" dy="1.5625" font-size="25" fill="#2A2C34"/><text text-anchor="middle" pointer-events="none" x="0" y="5" font-size="10px" fill="#2A2C34" font-family="sans-serif"> EWR</text></g><g class="node" transform="translate(12.36668161602291,-153.4808926593437)"><circle class="outline" cx="0" cy="0" r="25" fill="#ECB5C9" stroke="#da7298" stroke-width="2px"/><text text-anchor="middle" pointer-events="none" font-family="sans-serif" dy="1.5625" font-size="25" fill="#2A2C34"/><text text-anchor="middle" pointer-events="none" x="0" y="5" font-size="10px" fill="#2A2C34" font-family="sans-serif"> SMF</text></g><g class="node" transform="translate(244.12111544112753,-127.96575359191189)"><circle class="outline" cx="0" cy="0" r="25" fill="#ECB5C9" stroke="#da7298" stroke-width="2px"/><text text-anchor="middle" pointer-events="none" font-family="sans-serif" dy="1.5625" font-size="25" fill="#2A2C34"/><text text-anchor="middle" pointer-events="none" x="0" y="5" font-size="10px" fill="#2A2C34" font-family="sans-serif"> TUS</text></g><g class="node" transform="translate(-173.79477561004768,-50.60542994867383)"><circle class="outline" cx="0" cy="0" r="25" fill="#ECB5C9" stroke="#da7298" stroke-width="2px"/><text text-anchor="middle" pointer-events="none" font-family="sans-serif" dy="1.5625" font-size="25" fill="#2A2C34"/><text text-anchor="middle" pointer-events="none" x="0" y="5" font-size="10px" fill="#2A2C34" font-family="sans-serif"> IAH</text></g><g class="node" transform="translate(-227.69938270936402,93.62690866538637)"><circle class="outline" cx="0" cy="0" r="25" fill="#ECB5C9" stroke="#da7298" stroke-width="2px"/><text text-anchor="middle" pointer-events="none" font-family="sans-serif" dy="1.5625" font-size="25" fill="#2A2C34"/><text text-anchor="middle" pointer-events="none" x="0" y="5" font-size="10px" fill="#2A2C34" font-family="sans-serif"> BOS</text></g><g class="node" transform="translate(365.684678520286,-22.439749938976476)"><circle class="outline" cx="0" cy="0" r="25" fill="#ECB5C9" stroke="#da7298" stroke-width="2px"/><text text-anchor="middle" pointer-events="none" font-family="sans-serif" dy="1.5625" font-size="25" fill="#2A2C34"/><text text-anchor="middle" pointer-events="none" x="0" y="5" font-size="10px" fill="#2A2C34" font-family="sans-serif"> LAS</text></g><g class="node" transform="translate(31.9195973712836,318.23769575386365)"><circle class="outline" cx="0" cy="0" r="25" fill="#4C8EDA" stroke="#2870c2" stroke-width="2px"/><text text-anchor="middle" pointer-events="none" font-family="sans-serif" dy="1.5625" font-size="25" fill="#FFFFFF"/><text text-anchor="middle" pointer-events="none" x="0" y="5" font-size="10px" fill="#FFFFFF" font-family="sans-serif"> 11/1/2015</text></g><g class="node" transform="translate(225.9012947549506,254.42113137249524)"><circle class="outline" cx="0" cy="0" r="25" fill="#4C8EDA" stroke="#2870c2" stroke-width="2px"/><text text-anchor="middle" pointer-events="none" font-family="sans-serif" dy="1.5625" font-size="25" fill="#FFFFFF"/><text text-anchor="middle" pointer-events="none" x="0" y="5" font-size="10px" fill="#FFFFFF" font-family="sans-serif"> 11/1/2015</text></g><g class="node" transform="translate(-15.737572086341622,281.88711815333363)"><circle class="outline" cx="0" cy="0" r="25" fill="#4C8EDA" stroke="#2870c2" stroke-width="2px"/><text text-anchor="middle" pointer-events="none" font-family="sans-serif" dy="1.5625" font-size="25" fill="#FFFFFF"/><text text-anchor="middle" pointer-events="none" x="0" y="5" font-size="10px" fill="#FFFFFF" font-family="sans-serif"> 11/2/2015</text></g><g class="node" transform="translate(246.2689452213494,123.49131552665754)"><circle class="outline" cx="0" cy="0" r="25" fill="#4C8EDA" stroke="#2870c2" stroke-width="2px"/><text text-anchor="middle" pointer-events="none" font-family="sans-serif" dy="1.5625" font-size="25" fill="#FFFFFF"/><text text-anchor="middle" pointer-events="none" x="0" y="5" font-size="10px" fill="#FFFFFF" font-family="sans-serif"> 11/29/20…</text></g><g class="node" transform="translate(46.27649771109378,4.675804491477052)"><circle class="outline" cx="0" cy="0" r="25" fill="#4C8EDA" stroke="#2870c2" stroke-width="2px"/><text text-anchor="middle" pointer-events="none" font-family="sans-serif" dy="1.5625" font-size="25" fill="#FFFFFF"/><text text-anchor="middle" pointer-events="none" x="0" y="5" font-size="10px" fill="#FFFFFF" font-family="sans-serif"> 11/4/2015</text></g><g class="node" transform="translate(91.99872654803951,-38.825439245714996)"><circle class="outline" cx="0" cy="0" r="25" fill="#4C8EDA" stroke="#2870c2" stroke-width="2px"/><text text-anchor="middle" pointer-events="none" font-family="sans-serif" dy="1.5625" font-size="25" fill="#FFFFFF"/><text text-anchor="middle" pointer-events="none" x="0" y="5" font-size="10px" fill="#FFFFFF" font-family="sans-serif"> 11/3/2015</text></g><g class="node" transform="translate(39.443786580471155,258.747410436447)"><circle class="outline" cx="0" cy="0" r="25" fill="#4C8EDA" stroke="#2870c2" stroke-width="2px"/><text text-anchor="middle" pointer-events="none" font-family="sans-serif" dy="1.5625" font-size="25" fill="#FFFFFF"/><text text-anchor="middle" pointer-events="none" x="0" y="5" font-size="10px" fill="#FFFFFF" font-family="sans-serif"> 11/3/2015</text></g><g class="node" transform="translate(245.83191539315854,197.87951474338365)"><circle class="outline" cx="0" cy="0" r="25" fill="#4C8EDA" stroke="#2870c2" stroke-width="2px"/><text text-anchor="middle" pointer-events="none" font-family="sans-serif" dy="1.5625" font-size="25" fill="#FFFFFF"/><text text-anchor="middle" pointer-events="none" x="0" y="5" font-size="10px" fill="#FFFFFF" font-family="sans-serif"> 11/2/2015</text></g><g class="node" transform="translate(34.060141999513405,-53.780047907542134)"><circle class="outline" cx="0" cy="0" r="25" fill="#4C8EDA" stroke="#2870c2" stroke-width="2px"/><text text-anchor="middle" pointer-events="none" font-family="sans-serif" dy="1.5625" font-size="25" fill="#FFFFFF"/><text text-anchor="middle" pointer-events="none" x="0" y="5" font-size="10px" fill="#FFFFFF" font-family="sans-serif"> 11/1/2015</text></g><g class="node" transform="translate(151.18284791744074,-21.143640579320753)"><circle class="outline" cx="0" cy="0" r="25" fill="#4C8EDA" stroke="#2870c2" stroke-width="2px"/><text text-anchor="middle" pointer-events="none" font-family="sans-serif" dy="1.5625" font-size="25" fill="#FFFFFF"/><text text-anchor="middle" pointer-events="none" x="0" y="5" font-size="10px" fill="#FFFFFF" font-family="sans-serif"> 11/1/2015</text></g><g class="node" transform="translate(-10.850488614740051,-14.162471914928568)"><circle class="outline" cx="0" cy="0" r="25" fill="#4C8EDA" stroke="#2870c2" stroke-width="2px"/><text text-anchor="middle" pointer-events="none" font-family="sans-serif" dy="1.5625" font-size="25" fill="#FFFFFF"/><text text-anchor="middle" pointer-events="none" x="0" y="5" font-size="10px" fill="#FFFFFF" font-family="sans-serif"> 11/2/2015</text></g><g class="node" transform="translate(-55.301439806076935,47.215970790514646)"><circle class="outline" cx="0" cy="0" r="25" fill="#4C8EDA" stroke="#2870c2" stroke-width="2px"/><text text-anchor="middle" pointer-events="none" font-family="sans-serif" dy="1.5625" font-size="25" fill="#FFFFFF"/><text text-anchor="middle" pointer-events="none" x="0" y="5" font-size="10px" fill="#FFFFFF" font-family="sans-serif"> 11/30/20…</text></g><g class="node" transform="translate(-8.429595439942652,222.59268143736338)"><circle class="outline" cx="0" cy="0" r="25" fill="#4C8EDA" stroke="#2870c2" stroke-width="2px"/><text text-anchor="middle" pointer-events="none" font-family="sans-serif" dy="1.5625" font-size="25" fill="#FFFFFF"/><text text-anchor="middle" pointer-events="none" x="0" y="5" font-size="10px" fill="#FFFFFF" font-family="sans-serif"> 11/3/2015</text></g><g class="node" transform="translate(187.0126236295522,209.08744448189253)"><circle class="outline" cx="0" cy="0" r="25" fill="#4C8EDA" stroke="#2870c2" stroke-width="2px"/><text text-anchor="middle" pointer-events="none" font-family="sans-serif" dy="1.5625" font-size="25" fill="#FFFFFF"/><text text-anchor="middle" pointer-events="none" x="0" y="5" font-size="10px" fill="#FFFFFF" font-family="sans-serif"> 11/4/2015</text></g><g class="node" transform="translate(-78.13428710763048,109.63407406108419)"><circle class="outline" cx="0" cy="0" r="25" fill="#4C8EDA" stroke="#2870c2" stroke-width="2px"/><text text-anchor="middle" pointer-events="none" font-family="sans-serif" dy="1.5625" font-size="25" fill="#FFFFFF"/><text text-anchor="middle" pointer-events="none" x="0" y="5" font-size="10px" fill="#FFFFFF" font-family="sans-serif"> 11/29/20…</text></g><g class="node" transform="translate(-70.54722887063012,257.4659217982703)"><circle class="outline" cx="0" cy="0" r="25" fill="#4C8EDA" stroke="#2870c2" stroke-width="2px"/><text text-anchor="middle" pointer-events="none" font-family="sans-serif" dy="1.5625" font-size="25" fill="#FFFFFF"/><text text-anchor="middle" pointer-events="none" x="0" y="5" font-size="10px" fill="#FFFFFF" font-family="sans-serif"> 11/1/2015</text></g><g class="node" transform="translate(-63.13697630985622,198.26219508406064)"><circle class="outline" cx="0" cy="0" r="25" fill="#4C8EDA" stroke="#2870c2" stroke-width="2px"/><text text-anchor="middle" pointer-events="none" font-family="sans-serif" dy="1.5625" font-size="25" fill="#FFFFFF"/><text text-anchor="middle" pointer-events="none" x="0" y="5" font-size="10px" fill="#FFFFFF" font-family="sans-serif"> 11/2/2015</text></g><g class="node" transform="translate(230.63012481413102,62.68431063991448)"><circle class="outline" cx="0" cy="0" r="25" fill="#4C8EDA" stroke="#2870c2" stroke-width="2px"/><text text-anchor="middle" pointer-events="none" font-family="sans-serif" dy="1.5625" font-size="25" fill="#FFFFFF"/><text text-anchor="middle" pointer-events="none" x="0" y="5" font-size="10px" fill="#FFFFFF" font-family="sans-serif"> 11/29/20…</text></g><g class="node" transform="translate(170.2781636251456,276.49507963980716)"><circle class="outline" cx="0" cy="0" r="25" fill="#4C8EDA" stroke="#2870c2" stroke-width="2px"/><text text-anchor="middle" pointer-events="none" font-family="sans-serif" dy="1.5625" font-size="25" fill="#FFFFFF"/><text text-anchor="middle" pointer-events="none" x="0" y="5" font-size="10px" fill="#FFFFFF" font-family="sans-serif"> 11/3/2015</text></g><g class="node" transform="translate(86.9435754357214,295.19524088276404)"><circle class="outline" cx="0" cy="0" r="25" fill="#4C8EDA" stroke="#2870c2" stroke-width="2px"/><text text-anchor="middle" pointer-events="none" font-family="sans-serif" dy="1.5625" font-size="25" fill="#FFFFFF"/><text text-anchor="middle" pointer-events="none" x="0" y="5" font-size="10px" fill="#FFFFFF" font-family="sans-serif"> 11/4/2015</text></g><g class="node" transform="translate(202.48913833561198,9.634520110542613)"><circle class="outline" cx="0" cy="0" r="25" fill="#4C8EDA" stroke="#2870c2" stroke-width="2px"/><text text-anchor="middle" pointer-events="none" font-family="sans-serif" dy="1.5625" font-size="25" fill="#FFFFFF"/><text text-anchor="middle" pointer-events="none" x="0" y="5" font-size="10px" fill="#FFFFFF" font-family="sans-serif"> 11/2/2015</text></g></g></svg>