<svg xmlns="http://www.w3.org/2000/svg" width="361.2798156738281" height="362.4020080566406" viewBox="-89.84415435791016 -75.09280395507812 361.2798156738281 362.4020080566406"><title>Neo4j Graph Visualization</title><desc>Created using Neo4j (http://www.neo4j.com/)</desc><g class="layer relationships"><g class="relationship" transform="translate(138.4688708682052 258.30920036572246) rotate(328.9805090141846)"><path class="outline" fill="#A5ABB6" stroke="none" d="M 21.40063509461097,12.933012701892217 L 21.90063509461097,12.06698729810778 A 57.54058430921022 57.54058430921022 0 0 0 24.225382809967577,13.338726022644387 L 23.765784688802594,14.226853022020947 A 58.54058430921022 58.54058430921022 0 0 1 21.40063509461097,12.933012701892217 Z M 74.2531814123312,15.81594784238822 L 73.85034542356564,14.900675660927831 A 57.54058430921022 57.54058430921022 0 0 0 76.250468455678,13.777652618303357 L 74.91682500139868,11.090387254246819 L 82.7430282141898,11.11369545232769 L 78.02865972805043,17.360673103712074 L 76.6950162737711,14.673407739655534 A 58.54058430921022 58.54058430921022 0 0 1 74.2531814123312,15.81594784238822"/><text text-anchor="middle" pointer-events="none" font-size="8px" fill="#000000" x="48.84499948163044" y="23.24723534964373" font-family="sans-serif">PRODUCED</text></g><g class="relationship" transform="translate(138.4688708682052 258.30920036572246) rotate(328.9805090141846)"><path class="outline" fill="#A5ABB6" stroke="none" d="M 25 0.5 L 25.623140623997138 0.5 L 25.623140623997138 -0.5 L 25 -0.5 Z M 72.51376562399713 0.5 L 73.13690624799428 0.5 L 73.13690624799428 3.5 L 80.13690624799428 0 L 73.13690624799428 -3.5 L 73.13690624799428 -0.5 L 72.51376562399713 -0.5 Z"/><text text-anchor="middle" pointer-events="none" font-size="8px" fill="#000000" x="49.06845312399714" y="3" font-family="sans-serif">DIRECTED</text></g><g class="relationship" transform="translate(138.4688708682052 258.30920036572246) rotate(328.9805090141846)"><path class="outline" fill="#A5ABB6" stroke="none" d="M 21.40063509461097,-12.933012701892217 L 21.90063509461097,-12.06698729810778 A 57.54058430921022 57.54058430921022 0 0 1 31.501374219392467,-16.488923931458494 L 31.16822582926124,-17.431798339931312 A 58.54058430921022 58.54058430921022 0 0 0 21.40063509461097,-12.933012701892217 Z M 66.66384052315153,-18.549025630629124 L 66.39064691802008,-17.587066559714316 A 57.54058430921022 57.54058430921022 0 0 1 76.250468455678,-13.777652618303357 L 74.91682500139868,-11.090387254246819 L 82.7430282141898,-11.11369545232769 L 78.02865972805043,-17.360673103712074 L 76.6950162737711,-14.673407739655534 A 58.54058430921022 58.54058430921022 0 0 0 66.66384052315153,-18.549025630629124"/><text text-anchor="middle" pointer-events="none" font-size="8px" fill="#000000" x="48.84499948163044" y="-17.24723534964373" font-family="sans-serif">WROTE</text></g><g class="relationship" transform="translate(242.43568741268496 14.287547603914879) rotate(202.83159770386612)"><path class="outline" fill="#A5ABB6" stroke="none" d="M 24.018736134675446,6.953439040707552 L 24.277555179777966,5.987513214418485 A 99.62044691057963 99.62044691057963 0 0 0 25.363333311337584,6.271900587783307 L 25.115413415608828,7.240681122941737 A 100.62044691057963 100.62044691057963 0 0 1 24.018736134675446,6.953439040707552 Z M 71.80444891937046,8.004649771822855 L 71.58835740452324,7.028276658094782 A 99.62044691057963 99.62044691057963 0 0 0 72.68285858930876,6.779565006567431 L 72.00162390800622,3.8579354426099064 L 79.61353335209341,5.676955677521107 L 73.59117149771214,10.675071091844131 L 72.9099368164096,7.753441527886606 A 100.62044691057963 100.62044691057963 0 0 1 71.80444891937046,8.004649771822855"/><text text-anchor="middle" pointer-events="none" font-size="8px" fill="#000000" x="48.42318118465515" y="12.868596947104052" transform="rotate(180 48.42318118465515 9.868596947104052)" font-family="sans-serif">DIRECTED</text></g><g class="relationship" transform="translate(242.43568741268496 14.287547603914879) rotate(202.83159770386612)"><path class="outline" fill="#A5ABB6" stroke="none" d="M 24.018736134675446,-6.953439040707552 L 24.277555179777966,-5.987513214418485 A 99.62044691057963 99.62044691057963 0 0 1 30.756799832281605,-7.493698168683011 L 30.56302009239641,-8.474743230038513 A 100.62044691057963 100.62044691057963 0 0 0 24.018736134675446,-6.953439040707552 Z M 66.31938370713914,-9.059821514584698 L 66.1578046237176,-8.072961747545506 A 99.62044691057963 99.62044691057963 0 0 1 72.68285858930876,-6.779565006567431 L 72.00162390800622,-3.8579354426099064 L 79.61353335209341,-5.676955677521107 L 73.59117149771214,-10.675071091844131 L 72.9099368164096,-7.753441527886606 A 100.62044691057963 100.62044691057963 0 0 0 66.31938370713914,-9.059821514584698"/><text text-anchor="middle" pointer-events="none" font-size="8px" fill="#000000" x="48.423181184655135" y="-6.868596947104052" transform="rotate(180 48.423181184655135 -9.868596947104052)" font-family="sans-serif">WROTE</text></g><g class="relationship" transform="translate(44.70289645088094 -46.09280594241728) rotate(371.1247654311305)"><path class="outline" fill="#A5ABB6" stroke="none" d="M 24.018736134675446,6.953439040707552 L 24.277555179777966,5.987513214418485 A 99.43824518554847 99.43824518554847 0 0 0 25.31892671781796,6.260514640040213 L 25.070580218123865,7.229185903209341 A 100.43824518554847 100.43824518554847 0 0 1 24.018736134675446,6.953439040707552 Z M 71.75846538588154,7.993763800493866 L 71.54197018029188,7.017480119406912 A 99.43824518554847 99.43824518554847 0 0 0 72.59172245208264,6.778723702736387 L 71.91056635672169,3.857075816054517 L 79.52242687023382,5.676300794674505 L 73.49993057923055,10.674254218312214 L 72.8187744838696,7.752606331630344 A 100.43824518554847 100.43824518554847 0 0 1 71.75846538588154,7.993763800493866"/><text text-anchor="middle" pointer-events="none" font-size="8px" fill="#000000" x="48.37766097585276" y="12.862390961870204" font-family="sans-serif">DIRECTED</text></g><g class="relationship" transform="translate(44.70289645088094 -46.09280594241728) rotate(371.1247654311305)"><path class="outline" fill="#A5ABB6" stroke="none" d="M 24.018736134675446,-6.953439040707552 L 24.277555179777966,-5.987513214418485 A 99.43824518554847 99.43824518554847 0 0 1 30.711864736834585,-7.484402548962194 L 30.517752279675673,-8.46538183211537 A 100.43824518554847 100.43824518554847 0 0 0 24.018736134675446,-6.953439040707552 Z M 66.2737363061595,-9.05093491476363 L 66.11184907455018,-8.064125650395951 A 99.43824518554847 99.43824518554847 0 0 1 72.59172245208264,-6.778723702736387 L 71.91056635672169,-3.857075816054517 L 79.52242687023382,-5.676300794674505 L 73.49993057923055,-10.674254218312214 L 72.8187744838696,-7.752606331630344 A 100.43824518554847 100.43824518554847 0 0 0 66.2737363061595,-9.05093491476363"/><text text-anchor="middle" pointer-events="none" font-size="8px" fill="#000000" x="48.37766097585275" y="-6.862390961870204" font-family="sans-serif">WROTE</text></g><g class="relationship" transform="translate(-60.84415480233369 98.10393598552959) rotate(431.1158701183547)"><path class="outline" fill="#A5ABB6" stroke="none" d="M 21.40063509461097,12.933012701892217 L 21.90063509461097,12.06698729810778 A 57.14560162105306 57.14560162105306 0 0 0 31.31591503034187,16.416177649555657 L 30.980674516087877,17.358310229186955 A 58.14560162105306 58.14560162105306 0 0 1 21.40063509461097,12.933012701892217 Z M 66.47047029099778,18.47919659817645 L 66.19535000777987,17.51778678453708 A 57.14560162105306 57.14560162105306 0 0 0 75.86631520601557,13.771403846846713 L 74.533253067519,11.083850064146366 L 82.35945105539915,11.108851154138103 L 77.64373139067767,17.354808890447178 L 76.3106692521811,14.66725510774683 A 58.14560162105306 58.14560162105306 0 0 1 66.47047029099778,18.47919659817645"/><text text-anchor="middle" pointer-events="none" font-size="8px" fill="#000000" x="48.65370250827726" y="23.194316732056862" font-family="sans-serif">WROTE</text></g><g class="relationship" transform="translate(-60.84415480233369 98.10393598552959) rotate(431.1158701183547)"><path class="outline" fill="#A5ABB6" stroke="none" d="M 25 0.5 L 25.43255378895102 0.5 L 25.43255378895102 -0.5 L 25 -0.5 Z M 72.32317878895103 0.5 L 72.75573257790204 0.5 L 72.75573257790204 3.5 L 79.75573257790204 0 L 72.75573257790204 -3.5 L 72.75573257790204 -0.5 L 72.32317878895103 -0.5 Z"/><text text-anchor="middle" pointer-events="none" font-size="8px" fill="#000000" x="48.87786628895102" y="3" font-family="sans-serif">DIRECTED</text></g><g class="relationship" transform="translate(-60.84415480233369 98.10393598552959) rotate(431.1158701183547)"><path class="outline" fill="#A5ABB6" stroke="none" d="M 21.40063509461097,-12.933012701892217 L 21.90063509461097,-12.06698729810778 A 57.14560162105306 57.14560162105306 0 0 1 24.048942841824413,-13.246626051104535 L 23.586536421842336,-14.13329414163185 A 58.14560162105306 58.14560162105306 0 0 0 21.40063509461097,-12.933012701892217 Z M 74.05338223950342,-15.72720580913439 L 73.647849479037,-14.813125298354024 A 57.14560162105306 57.14560162105306 0 0 1 75.86631520601557,-13.771403846846713 L 74.533253067519,-11.083850064146366 L 82.35945105539915,-11.108851154138103 L 77.64373139067767,-17.354808890447178 L 76.3106692521811,-14.66725510774683 A 58.14560162105306 58.14560162105306 0 0 0 74.05338223950342,-15.72720580913439"/><text text-anchor="middle" pointer-events="none" font-size="8px" fill="#000000" x="48.65370250827725" y="-17.194316732056862" font-family="sans-serif">PRODUCED</text></g></g><g class="layer nodes"><g class="node" transform="translate(138.4688708682052,258.30920036572246)"><circle class="outline" cx="0" cy="0" r="25" fill="#F79767" stroke="#f36924" stroke-width="2px"/><text text-anchor="middle" pointer-events="none" font-family="sans-serif" dy="1.5625" font-size="25" fill="#FFFFFF"/><text text-anchor="middle" pointer-events="none" font-family="sans-serif" dy="1.5625" font-size="25" fill="#FFFFFF"/><text text-anchor="middle" pointer-events="none" x="0" y="0" font-size="10px" fill="#FFFFFF" font-family="sans-serif"> Cameron</text><text text-anchor="middle" pointer-events="none" x="0" y="10" font-size="10px" fill="#FFFFFF" font-family="sans-serif"> Crowe</text></g><g class="node" transform="translate(228.57036310494152,204.12903654063902)"><circle class="outline" cx="0" cy="0" r="25" fill="#57C7E3" stroke="#23b3d7" stroke-width="2px"/><text text-anchor="middle" pointer-events="none" font-family="sans-serif" dy="1.5625" font-size="25" fill="#2A2C34"/><text text-anchor="middle" pointer-events="none" font-family="sans-serif" dy="1.5625" font-size="25" fill="#2A2C34"/><text text-anchor="middle" pointer-events="none" x="0" y="0" font-size="10px" fill="#2A2C34" font-family="sans-serif"> Jerry</text><text text-anchor="middle" pointer-events="none" x="0" y="10" font-size="10px" fill="#2A2C34" font-family="sans-serif"> Maguire</text></g><g class="node" transform="translate(242.43568741268496,14.287547603914879)"><circle class="outline" cx="0" cy="0" r="25" fill="#F79767" stroke="#f36924" stroke-width="2px"/><text text-anchor="middle" pointer-events="none" font-family="sans-serif" dy="1.5625" font-size="25" fill="#FFFFFF"/><text text-anchor="middle" pointer-events="none" font-family="sans-serif" dy="1.5625" font-size="25" fill="#FFFFFF"/><text text-anchor="middle" pointer-events="none" x="0" y="0" font-size="10px" fill="#FFFFFF" font-family="sans-serif"> Lana</text><text text-anchor="middle" pointer-events="none" x="0" y="10" font-size="10px" fill="#FFFFFF" font-family="sans-serif"> Wacho…</text></g><g class="node" transform="translate(146.62061448512,-26.051592353067292)"><circle class="outline" cx="0" cy="0" r="25" fill="#57C7E3" stroke="#23b3d7" stroke-width="2px"/><text text-anchor="middle" pointer-events="none" font-family="sans-serif" dy="1.5625" font-size="25" fill="#2A2C34"/><text text-anchor="middle" pointer-events="none" font-family="sans-serif" dy="1.5625" font-size="25" fill="#2A2C34"/><text text-anchor="middle" pointer-events="none" x="0" y="0" font-size="10px" fill="#2A2C34" font-family="sans-serif"> Speed</text><text text-anchor="middle" pointer-events="none" x="0" y="10" font-size="10px" fill="#2A2C34" font-family="sans-serif"> Racer</text></g><g class="node" transform="translate(44.70289645088094,-46.09280594241728)"><circle class="outline" cx="0" cy="0" r="25" fill="#F79767" stroke="#f36924" stroke-width="2px"/><text text-anchor="middle" pointer-events="none" font-family="sans-serif" dy="1.5625" font-size="25" fill="#FFFFFF"/><text text-anchor="middle" pointer-events="none" font-family="sans-serif" dy="1.5625" font-size="25" fill="#FFFFFF"/><text text-anchor="middle" pointer-events="none" x="0" y="0" font-size="10px" fill="#FFFFFF" font-family="sans-serif"> Lilly</text><text text-anchor="middle" pointer-events="none" x="0" y="10" font-size="10px" fill="#FFFFFF" font-family="sans-serif"> Wacho…</text></g><g class="node" transform="translate(-60.84415480233369,98.10393598552959)"><circle class="outline" cx="0" cy="0" r="25" fill="#F79767" stroke="#f36924" stroke-width="2px"/><text text-anchor="middle" pointer-events="none" font-family="sans-serif" dy="1.5625" font-size="25" fill="#FFFFFF"/><text text-anchor="middle" pointer-events="none" font-family="sans-serif" dy="1.5625" font-size="25" fill="#FFFFFF"/><text text-anchor="middle" pointer-events="none" x="0" y="0" font-size="10px" fill="#FFFFFF" font-family="sans-serif"> Nancy</text><text text-anchor="middle" pointer-events="none" x="0" y="10" font-size="10px" fill="#FFFFFF" font-family="sans-serif"> Meyers</text></g><g class="node" transform="translate(-26.93940113856318,197.22119576873772)"><circle class="outline" cx="0" cy="0" r="25" fill="#57C7E3" stroke="#23b3d7" stroke-width="2px"/><text text-anchor="middle" pointer-events="none" font-family="sans-serif" dy="1.5625" font-size="25" fill="#2A2C34"/><text text-anchor="middle" pointer-events="none" x="0" y="5" font-size="10px" fill="#2A2C34" font-family="sans-serif"> Somethi…</text></g></g></svg>