<svg xmlns="http://www.w3.org/2000/svg" width="827.1900634765625" height="199.54220581054688" viewBox="-239.23191833496094 -22.333595275878906 827.1900634765625 199.54220581054688"><title>Neo4j Graph Visualization</title><desc>Created using Neo4j (http://www.neo4j.com/)</desc><g class="layer relationships"><g class="relationship" transform="translate(-206.46023888269337 14.29161647924576) rotate(451.84055815347403)"><path class="outline" fill="#A5ABB6" stroke="none" d="M 25 0.5 L 37.99253016504671 0.5 L 37.99253016504671 -0.5 L 25 -0.5 Z M 72.4378426650467 0.5 L 85.43037283009342 0.5 L 85.43037283009342 3.5 L 92.43037283009342 0 L 85.43037283009342 -3.5 L 85.43037283009342 -0.5 L 72.4378426650467 -0.5 Z"/><text text-anchor="middle" pointer-events="none" font-size="8px" fill="#000000" x="55.21518641504671" y="3" transform="rotate(180 55.21518641504671 0)" font-family="sans-serif">ORIGIN</text></g><g class="relationship" transform="translate(-206.46023888269337 14.29161647924576) rotate(359.8565746909551)"><path class="outline" fill="#A5ABB6" stroke="none" d="M 25 0.5 L 31.754875712941626 0.5 L 31.754875712941626 -0.5 L 25 -0.5 Z M 90.94237571294163 0.5 L 97.69725142588325 0.5 L 97.69725142588325 3.5 L 104.69725142588325 0 L 97.69725142588325 -3.5 L 97.69725142588325 -0.5 L 90.94237571294163 -0.5 Z"/><text text-anchor="middle" pointer-events="none" font-size="8px" fill="#000000" x="61.348625712941626" y="3" font-family="sans-serif">DESTINATION</text></g><g class="relationship" transform="translate(47.55216245732305 13.229557860327049) rotate(539.6601460566305)"><path class="outline" fill="#A5ABB6" stroke="none" d="M 25 0.5 L 41.436215366093066 0.5 L 41.436215366093066 -0.5 L 25 -0.5 Z M 75.88152786609307 0.5 L 92.31774323218613 0.5 L 92.31774323218613 3.5 L 99.31774323218613 0 L 92.31774323218613 -3.5 L 92.31774323218613 -0.5 L 75.88152786609307 -0.5 Z"/><text text-anchor="middle" pointer-events="none" font-size="8px" fill="#000000" x="58.658871616093066" y="3" transform="rotate(180 58.658871616093066 0)" font-family="sans-serif">ORIGIN</text></g><g class="relationship" transform="translate(47.55216245732305 13.229557860327049) rotate(361.8599573717253)"><path class="outline" fill="#A5ABB6" stroke="none" d="M 25 0.5 L 38.08625953643346 0.5 L 38.08625953643346 -0.5 L 25 -0.5 Z M 97.27375953643346 0.5 L 110.36001907286692 0.5 L 110.36001907286692 3.5 L 117.36001907286692 0 L 110.36001907286692 -3.5 L 110.36001907286692 -0.5 L 97.27375953643346 -0.5 Z"/><text text-anchor="middle" pointer-events="none" font-size="8px" fill="#000000" x="67.68000953643346" y="3" font-family="sans-serif">DESTINATION</text></g><g class="relationship" transform="translate(318.4409138686541 15.058686209758434) rotate(538.756563180683)"><path class="outline" fill="#A5ABB6" stroke="none" d="M 25 0.5 L 31.22326324972701 0.5 L 31.22326324972701 -0.5 L 25 -0.5 Z M 90.41076324972701 0.5 L 96.63402649945402 0.5 L 96.63402649945402 3.5 L 103.63402649945402 0 L 96.63402649945402 -3.5 L 96.63402649945402 -0.5 L 90.41076324972701 -0.5 Z"/><text text-anchor="middle" pointer-events="none" font-size="8px" fill="#000000" x="60.81701324972701" y="3" transform="rotate(180 60.81701324972701 0)" font-family="sans-serif">DESTINATION</text></g><g class="relationship" transform="translate(318.4409138686541 15.058686209758434) rotate(358.18582355070157)"><path class="outline" fill="#A5ABB6" stroke="none" d="M 25 0.5 L 43.737529066182276 0.5 L 43.737529066182276 -0.5 L 25 -0.5 Z M 78.18284156618228 0.5 L 96.92037063236455 0.5 L 96.92037063236455 3.5 L 103.92037063236455 0 L 96.92037063236455 -3.5 L 96.92037063236455 -0.5 L 78.18284156618228 -0.5 Z"/><text text-anchor="middle" pointer-events="none" font-size="8px" fill="#000000" x="60.960185316182276" y="3" font-family="sans-serif">ORIGIN</text></g><g class="relationship" transform="translate(556.5399858835135 6.666405113581618) rotate(537.7401915963314)"><path class="outline" fill="#A5ABB6" stroke="none" d="M 25 0.5 L 33.94151688350138 0.5 L 33.94151688350138 -0.5 L 25 -0.5 Z M 68.38682938350138 0.5 L 77.32834626700276 0.5 L 77.32834626700276 3.5 L 84.32834626700276 0 L 77.32834626700276 -3.5 L 77.32834626700276 -0.5 L 68.38682938350138 -0.5 Z"/><text text-anchor="middle" pointer-events="none" font-size="8px" fill="#000000" x="51.16417313350138" y="3" transform="rotate(180 51.16417313350138 0)" font-family="sans-serif">ORIGIN</text></g><g class="relationship" transform="translate(556.5399858835135 6.666405113581618) rotate(449.0212281740855)"><path class="outline" fill="#A5ABB6" stroke="none" d="M 25 0.5 L 37.68768338470973 0.5 L 37.68768338470973 -0.5 L 25 -0.5 Z M 96.87518338470973 0.5 L 109.56286676941946 0.5 L 109.56286676941946 3.5 L 116.56286676941946 0 L 109.56286676941946 -3.5 L 109.56286676941946 -0.5 L 96.87518338470973 -0.5 Z"/><text text-anchor="middle" pointer-events="none" font-size="8px" fill="#000000" x="67.28143338470973" y="3" font-family="sans-serif">DESTINATION</text></g></g><g class="layer nodes"><g class="node" transform="translate(558.9581571316949,148.2086168236961)"><circle class="outline" cx="0" cy="0" r="25" fill="#ECB5C9" stroke="#da7298" stroke-width="2px"/><text text-anchor="middle" pointer-events="none" font-family="sans-serif" dy="1.5625" font-size="25" fill="#2A2C34"/><text text-anchor="middle" pointer-events="none" x="0" y="5" font-size="10px" fill="#2A2C34" font-family="sans-serif"> DAY</text></g><g class="node" transform="translate(-210.23189991094375,131.66140405723672)"><circle class="outline" cx="0" cy="0" r="25" fill="#ECB5C9" stroke="#da7298" stroke-width="2px"/><text text-anchor="middle" pointer-events="none" font-family="sans-serif" dy="1.5625" font-size="25" fill="#2A2C34"/><text text-anchor="middle" pointer-events="none" x="0" y="5" font-size="10px" fill="#2A2C34" font-family="sans-serif"> LAX</text></g><g class="node" transform="translate(-206.46023888269337,14.29161647924576)"><circle class="outline" cx="0" cy="0" r="25" fill="#4C8EDA" stroke="#2870c2" stroke-width="2px"/><text text-anchor="middle" pointer-events="none" font-family="sans-serif" dy="1.5625" font-size="25" fill="#FFFFFF"/><text text-anchor="middle" pointer-events="none" x="0" y="5" font-size="10px" fill="#FFFFFF" font-family="sans-serif"> 11/29/20…</text></g><g class="node" transform="translate(-76.7633938129947,13.96695296827059)"><circle class="outline" cx="0" cy="0" r="25" fill="#ECB5C9" stroke="#da7298" stroke-width="2px"/><text text-anchor="middle" pointer-events="none" font-family="sans-serif" dy="1.5625" font-size="25" fill="#2A2C34"/><text text-anchor="middle" pointer-events="none" x="0" y="5" font-size="10px" fill="#2A2C34" font-family="sans-serif"> LAS</text></g><g class="node" transform="translate(47.55216245732305,13.229557860327049)"><circle class="outline" cx="0" cy="0" r="25" fill="#4C8EDA" stroke="#2870c2" stroke-width="2px"/><text text-anchor="middle" pointer-events="none" font-family="sans-serif" dy="1.5625" font-size="25" fill="#FFFFFF"/><text text-anchor="middle" pointer-events="none" x="0" y="5" font-size="10px" fill="#FFFFFF" font-family="sans-serif"> 11/29/20…</text></g><g class="node" transform="translate(189.83717818739962,17.850091283959188)"><circle class="outline" cx="0" cy="0" r="25" fill="#ECB5C9" stroke="#da7298" stroke-width="2px"/><text text-anchor="middle" pointer-events="none" font-family="sans-serif" dy="1.5625" font-size="25" fill="#2A2C34"/><text text-anchor="middle" pointer-events="none" x="0" y="5" font-size="10px" fill="#2A2C34" font-family="sans-serif"> DEN</text></g><g class="node" transform="translate(318.4409138686541,15.058686209758434)"><circle class="outline" cx="0" cy="0" r="25" fill="#4C8EDA" stroke="#2870c2" stroke-width="2px"/><text text-anchor="middle" pointer-events="none" font-family="sans-serif" dy="1.5625" font-size="25" fill="#FFFFFF"/><text text-anchor="middle" pointer-events="none" x="0" y="5" font-size="10px" fill="#FFFFFF" font-family="sans-serif"> 11/29/20…</text></g><g class="node" transform="translate(447.2966641890734,10.977317156609615)"><circle class="outline" cx="0" cy="0" r="25" fill="#ECB5C9" stroke="#da7298" stroke-width="2px"/><text text-anchor="middle" pointer-events="none" font-family="sans-serif" dy="1.5625" font-size="25" fill="#2A2C34"/><text text-anchor="middle" pointer-events="none" x="0" y="5" font-size="10px" fill="#2A2C34" font-family="sans-serif"> MSP</text></g><g class="node" transform="translate(556.5399858835135,6.666405113581618)"><circle class="outline" cx="0" cy="0" r="25" fill="#4C8EDA" stroke="#2870c2" stroke-width="2px"/><text text-anchor="middle" pointer-events="none" font-family="sans-serif" dy="1.5625" font-size="25" fill="#FFFFFF"/><text text-anchor="middle" pointer-events="none" x="0" y="5" font-size="10px" fill="#FFFFFF" font-family="sans-serif"> 11/11/20…</text></g></g></svg>